<svg width="10" height="17" viewBox="0 0 10 17" fill="none" xmlns="http://www.w3.org/2000/svg">
<path fill-rule="evenodd" clip-rule="evenodd" d="M9.80113 12.3517L5.48011 16.7955C5.21495 17.0682 4.78505 17.0682 4.51989 16.7955L0.198869 12.3517C-0.0662904 12.079 -0.0662904 11.6369 0.198869 11.3642C0.464029 11.0915 0.893936 11.0915 1.1591 11.3642L4.32102 14.6159L4.32102 0.698276C4.32102 0.312628 4.62501 -2.34948e-07 5 -2.18557e-07C5.37499 -2.02166e-07 5.67898 0.312628 5.67898 0.698276L5.67898 14.6159L8.8409 11.3642C9.10606 11.0915 9.53597 11.0915 9.80113 11.3642C10.0663 11.6369 10.0663 12.079 9.80113 12.3517Z" fill="currentColor"/>
</svg>
