<svg width="25" height="25" viewBox="0 0 25 25" fill="none" xmlns="http://www.w3.org/2000/svg">
<path d="M0.249798 6.71312L1.50221 5.46079C1.6691 5.29356 1.86134 5.21021 2.07867 5.21021C2.29548 5.21021 2.48764 5.29356 2.65452 5.46079L12.4999 15.3056L22.3448 5.46106C22.5117 5.29382 22.7039 5.21047 22.921 5.21047C23.1381 5.21047 23.3303 5.29382 23.4972 5.46106L24.7494 6.71347C24.9166 6.88036 25 7.07251 25 7.28967C25 7.50665 24.9164 7.69881 24.7494 7.86569L13.0761 19.5393C12.9092 19.7063 12.7169 19.7897 12.4999 19.7897C12.2828 19.7897 12.0909 19.7063 11.9241 19.5393L0.249798 7.86569C0.0829144 7.69872 0 7.50657 0 7.28967C0 7.07251 0.0829144 6.88036 0.249798 6.71312Z" fill="currentColor"/>
</svg>
