<svg width="40" height="19" viewBox="0 0 40 19" fill="none" xmlns="http://www.w3.org/2000/svg">
<mask id="path-1-inside-1_106_1615" fill="white">
<rect x="13" width="14" height="19" rx="1"/>
</mask>
<rect x="13" width="14" height="19" rx="1" stroke="currentColor" stroke-width="4" mask="url(#path-1-inside-1_106_1615)"/>
<rect x="18.9824" y="13" width="2" height="2" fill="currentColor"/>
<path fill-rule="evenodd" clip-rule="evenodd" d="M7.18054 14.7738C6.80183 15.0775 6.25297 15.0612 5.93072 14.6981C5.83227 14.5872 5.73609 14.4732 5.6423 14.3563C2.73246 10.7283 3.14557 5.48916 6.44802 2.21623C6.84031 1.82746 7.4744 1.89997 7.81996 2.33081V2.33081C8.1655 2.76163 8.09002 3.38697 7.70876 3.78652C5.23761 6.37627 5.0053 10.3655 7.20247 13.1049C7.22597 13.1342 7.24967 13.1633 7.27357 13.1921C7.66548 13.6648 7.65951 14.3896 7.18054 14.7738V14.7738ZM10.1906 12.3596C9.8348 12.6449 9.31644 12.6249 9.03109 12.2691V12.2691C7.34206 10.1632 7.22047 7.29737 8.50011 5.0428C8.81121 4.49467 9.56196 4.50272 9.9563 4.99439L10.0099 5.06116C10.2887 5.40883 10.2931 5.89479 10.0987 6.29581C9.35701 7.82535 9.50941 9.66893 10.5913 11.0178V11.0178C10.8515 11.3422 10.8471 11.833 10.5226 12.0933L10.1906 12.3596Z" fill="currentColor"/>
<path fill-rule="evenodd" clip-rule="evenodd" d="M32.4623 14.7738C32.841 15.0775 33.3898 15.0612 33.7121 14.6981C33.8105 14.5872 33.9067 14.4732 34.0005 14.3563C36.9103 10.7283 36.4972 5.48916 33.1948 2.21623C32.8025 1.82746 32.1684 1.89997 31.8228 2.33081V2.33081C31.4773 2.76163 31.5528 3.38697 31.934 3.78652C34.4052 6.37627 34.6375 10.3655 32.4403 13.1049C32.4168 13.1342 32.3931 13.1633 32.3692 13.1921C31.9773 13.6648 31.9833 14.3896 32.4623 14.7738V14.7738ZM29.4522 12.3596C29.808 12.6449 30.3264 12.6249 30.6117 12.2691V12.2691C32.3007 10.1632 32.4223 7.29737 31.1427 5.0428C30.8316 4.49467 30.0808 4.50272 29.6865 4.99439L29.6329 5.06116C29.3541 5.40883 29.3497 5.89479 29.5441 6.29581C30.2858 7.82535 30.1334 9.66893 29.0515 11.0178V11.0178C28.7913 11.3422 28.7957 11.833 29.1202 12.0933L29.4522 12.3596Z" fill="currentColor"/>
</svg>
