<svg width="12" height="22" viewBox="0 0 12 22" fill="none" xmlns="http://www.w3.org/2000/svg">
<path d="M0.705827 12.7756H3.07552V21.3116C3.07552 21.6911 3.39079 21.9991 3.78135 21.9991L7.55235 22C7.94291 22 8.25818 21.6911 8.25818 21.3125V12.7765H10.5046C10.8603 12.7765 11.1605 12.518 11.2048 12.1743L11.6734 8.50758C11.7261 8.09875 11.3977 7.73483 10.9733 7.73483H8.25818C8.36452 5.46975 7.8488 4.79967 9.36115 4.79967C10.3851 4.6805 12 5.18558 12 4.11217V0.83325C12 0.4895 11.7393 0.198917 11.3902 0.152167C11.0947 0.11275 9.92675 0 8.47839 0C1.88126 0 3.23928 7.12433 3.07647 7.73392H0.705827C0.316211 7.73392 0 8.04192 0 8.42142V12.0881C0 12.4676 0.316211 12.7756 0.705827 12.7756ZM1.41165 9.10983H3.78135C4.17097 9.10983 4.48718 8.80183 4.48718 8.42233V5.53392C4.48718 2.89117 5.94118 1.37592 8.47745 1.37592C9.30374 1.37592 10.0642 1.41533 10.5874 1.45567V3.42558C10.2091 3.6135 6.84558 2.61525 6.84558 5.89783V8.42325C6.84558 8.80275 7.16179 9.11075 7.55141 9.11075H10.1733L9.87969 11.4024H7.55141C7.16179 11.4024 6.84558 11.7104 6.84558 12.0899V20.625H4.48812V12.089C4.48812 11.7095 4.17191 11.4015 3.78229 11.4015H1.41165V9.10983Z" fill="currentColor"/>
</svg>
