<svg width="37" height="32" viewBox="0 0 37 32" fill="none" xmlns="http://www.w3.org/2000/svg">
<path d="M19.3267 2.44444C19.4 3.53222 19.5833 4.59556 19.8767 5.61L18.41 7.07667C17.9089 5.61 17.5911 4.05778 17.4811 2.44444H19.3267ZM31.3778 17.1356C32.4167 17.4289 33.48 17.6122 34.5556 17.6856V19.5067C32.9422 19.3967 31.39 19.0789 29.9111 18.59L31.3778 17.1356ZM20.5 0H16.2222C15.55 0 15 0.55 15 1.22222C15 12.6989 24.3011 22 35.7778 22C36.45 22 37 21.45 37 20.7778V16.5122C37 15.84 36.45 15.29 35.7778 15.29C34.2622 15.29 32.7833 15.0456 31.4144 14.5933C31.2922 14.5444 31.1578 14.5322 31.0356 14.5322C30.7178 14.5322 30.4122 14.6544 30.1678 14.8867L27.4789 17.5756C24.02 15.8033 21.1844 12.98 19.4244 9.52111L22.1133 6.83222C22.4556 6.49 22.5533 6.01333 22.4189 5.58556C21.9667 4.21667 21.7222 2.75 21.7222 1.22222C21.7222 0.55 21.1722 0 20.5 0Z" fill="currentColor"/>
<path fill-rule="evenodd" clip-rule="evenodd" d="M6.7586 26.1854L8.94065 28.4208L11.1227 26.1854H18.5294V20.2878C16.4064 18.4934 14.7153 16.1787 13.6429 13.5309H2.47059V26.1854H6.7586ZM15.3907 11H1.23529C0.55306 11 0 11.5666 0 12.2655V27.4509C0 28.1498 0.55306 28.7163 1.23529 28.7163H5.73525L8.94065 32L12.146 28.7163H19.7647C20.4469 28.7163 21 28.1498 21 27.4509V19.0367C18.3283 17.1146 16.3186 14.2924 15.3907 11Z" fill="currentColor"/>
</svg>
