<svg width="11" height="18" viewBox="0 0 11 18" fill="none" xmlns="http://www.w3.org/2000/svg">
<path d="M4.51019 12.656C3.11726 12.5108 1.86132 12.1677 0.786047 11.3267C0.652625 11.2221 0.514875 11.1212 0.393121 11.0044C-0.0775254 10.5523 -0.124948 10.0347 0.247467 9.50115C0.566061 9.04462 1.10088 8.92249 1.65677 9.18463C1.76441 9.23544 1.86697 9.29886 1.9652 9.36698C3.96916 10.7439 6.72209 10.7819 8.73358 9.42889C8.93287 9.27609 9.14589 9.15151 9.39279 9.0879C9.87284 8.96464 10.3205 9.14097 10.5782 9.56099C10.8725 10.0407 10.8687 10.5089 10.5061 10.8813C9.94981 11.4522 9.28082 11.8653 8.5375 12.1536C7.83463 12.4261 7.06478 12.5633 6.30282 12.6543C6.4178 12.7795 6.472 12.841 6.54388 12.9133C7.57852 13.9528 8.61766 14.988 9.64891 16.0307C10.0002 16.386 10.0736 16.8266 9.88018 17.2398C9.66867 17.6914 9.1952 17.9886 8.73095 17.9568C8.43682 17.9365 8.20742 17.7901 8.00362 17.5847C7.22285 16.7991 6.4274 16.0279 5.66244 15.2274C5.43981 14.9946 5.33274 15.0386 5.13627 15.2407C4.3508 16.0494 3.55253 16.8456 2.74955 17.6372C2.38899 17.9927 1.95993 18.0567 1.54179 17.8537C1.0973 17.6382 0.814462 17.1845 0.836292 16.7285C0.851346 16.4201 1.00302 16.1845 1.21473 15.9731C2.23863 14.9507 3.25971 13.9257 4.28117 12.9016C4.34873 12.8335 4.41177 12.7612 4.51019 12.656Z" fill="currentColor"/>
<path d="M5.35872 9.09472C2.87376 9.08625 0.836112 7.02621 0.850602 4.5373C0.864904 2.02092 2.90387 -0.0069449 5.41329 1.78767e-05C7.92779 0.00679247 9.94605 2.06382 9.93345 4.60636C9.92065 7.09019 7.86889 9.10337 5.35872 9.09472ZM7.6171 4.54332C7.61277 3.30752 6.62857 2.3237 5.39522 2.32257C4.15152 2.32126 3.15848 3.32295 3.16808 4.57004C3.1773 5.80114 4.16996 6.778 5.4067 6.77348C6.63968 6.76915 7.62124 5.77893 7.6171 4.54332Z" fill="currentColor"/>
</svg>
