<svg width="71" height="66" viewBox="0 0 71 66" fill="none" xmlns="http://www.w3.org/2000/svg">
<path d="M58.3901 46.8101C58.3588 46.8101 58.3588 46.8414 58.3275 46.8414C58.3588 46.8414 58.3588 46.8101 58.3901 46.8101ZM54.7923 24.5309C55.7935 24.1554 56.8258 23.8112 57.827 23.4044C58.0459 23.3105 58.2649 23.1854 58.4839 23.0602C58.2962 22.7786 58.0772 22.497 57.8895 22.2153C57.608 21.8085 57.3577 21.3705 57.0448 20.995C56.513 20.3379 55.856 19.7746 55.1678 19.2427C54.8549 18.9924 54.5733 18.742 54.2605 18.523C54.0728 18.3665 53.8851 18.2101 53.6974 18.0223C53.2907 19.6495 52.7901 21.2453 52.1957 22.8099C52.0393 23.1854 51.8829 23.5921 51.7577 23.9676C51.6013 24.3431 51.4762 24.7499 51.3197 25.1254C51.2572 25.2819 51.1946 25.4383 51.132 25.5948C51.1946 25.5948 51.2572 25.5635 51.3197 25.5635H51.351C51.3823 25.5635 51.4136 25.5322 51.4449 25.5322C51.8203 25.4383 52.227 25.3757 52.6024 25.2506C52.8527 25.1567 53.0717 25.0941 53.322 25.0002C53.8538 24.8751 54.3231 24.7186 54.7923 24.5309ZM50.5689 3.28425C49.8806 3.59716 49.2237 3.97265 48.6293 4.41072C48.3164 4.66105 48.0661 4.94267 47.8158 5.22429C47.5343 5.59978 47.3153 6.00657 47.1276 6.41336C46.9399 6.88272 46.8147 7.38337 46.7209 7.88403C46.6896 8.25952 46.6583 8.66631 46.627 9.0418C46.5957 9.51117 46.5957 9.94924 46.6583 10.4186C46.7209 10.7315 46.7835 11.0444 46.9086 11.326C47.0337 11.5764 47.1589 11.7954 47.3153 12.0145C47.503 12.2648 47.7533 12.5151 48.0036 12.7028C48.2851 12.9219 48.598 13.0783 48.9108 13.2348C49.3801 13.4225 49.8806 13.5477 50.3812 13.6103C50.913 13.6729 51.4449 13.7042 51.9454 13.7042C52.5398 13.7042 53.1655 13.7355 53.7599 13.6729C54.3544 13.579 54.9488 13.4225 55.5119 13.2348C55.856 13.1096 56.1689 13.0158 56.513 12.8906C57.2638 12.5777 57.9834 12.1709 58.6404 11.6702C58.9219 11.4512 59.1722 11.2009 59.3912 10.9193C59.5476 10.7002 59.6728 10.4812 59.7979 10.2309C59.8918 9.94924 59.9543 9.66762 60.0169 9.35471C60.0482 9.01051 60.0795 8.6976 60.0482 8.3534C60.0169 8.13436 59.9543 7.94661 59.8918 7.75887C59.7353 7.38338 59.5163 7.03918 59.2661 6.72627C59.0471 6.47594 58.8281 6.19431 58.6091 5.97527C58.4214 5.78753 58.2337 5.59978 58.046 5.38075C57.827 5.16171 57.6393 4.97396 57.4203 4.75493C57.17 4.5046 56.951 4.25427 56.7007 4.03524C56.5443 3.94136 56.3879 3.84748 56.2314 3.7849C55.8873 3.65974 55.5432 3.56586 55.1678 3.47199C55.0426 3.4407 54.9175 3.40941 54.8236 3.37812C54.6672 3.34683 54.5108 3.28425 54.3856 3.19037C54.3544 3.15908 54.3231 3.12779 54.2918 3.0965C54.1041 3.19038 53.8851 3.22166 53.6974 3.19037C53.322 3.0965 52.9465 2.97134 52.5711 2.90876C52.3209 2.87746 52.1019 2.90876 51.8516 2.90876C51.4136 3.00263 51.0069 3.1278 50.5689 3.28425ZM44.0304 31.4462C43.9053 30.883 43.8427 30.351 43.6863 29.7878C43.6237 29.4749 43.5298 29.1619 43.436 28.849C43.3421 28.5987 43.2796 28.3797 43.1857 28.1606L43.1544 28.1293C43.0919 28.2858 43.0293 28.411 42.9354 28.5674C42.8103 28.8177 42.6852 29.0368 42.5913 29.2871C42.341 29.8191 42.122 30.3197 41.8717 30.8517C41.5589 31.5714 41.2773 32.3223 40.9332 33.042C40.8706 33.1672 40.8081 33.3237 40.7455 33.4488C41.2773 33.5427 41.8405 33.6366 42.3723 33.7304C42.8416 33.793 43.3421 33.8243 43.8114 33.9182C44.0617 33.9495 44.2807 33.9808 44.5309 34.0121C44.3745 33.1359 44.2181 32.291 44.0304 31.4462ZM33.9567 36.5466C34.6137 36.0147 35.2707 35.4514 35.9277 34.9195C36.2405 34.6692 36.5221 34.4188 36.8349 34.1998C36.2092 34.0433 35.5522 33.8869 34.9265 33.7304C34.4886 33.6053 34.0506 33.5114 33.6126 33.3549C33.1746 34.763 32.6428 36.1711 32.1422 37.5479C32.0483 37.767 31.9858 37.986 31.8919 38.2051C31.9858 38.1425 32.0483 38.0799 32.1422 37.986C32.7366 37.5479 33.331 37.016 33.9567 36.5466ZM35.1142 32.1659C35.4897 32.2598 35.8964 32.3536 36.2718 32.4475C36.7411 32.5414 37.179 32.6665 37.6483 32.7917C37.5545 32.2598 37.4293 31.7278 37.3355 31.1646C37.2416 30.6639 37.1165 30.1633 37.0226 29.6626C36.9913 29.5374 36.9913 29.4436 36.96 29.3184C36.7411 29.5687 36.5221 29.7878 36.3031 30.0381C36.0215 30.3197 35.7712 30.6326 35.4897 30.9142C35.1768 31.2897 34.8327 31.6339 34.4886 32.0094C34.7075 32.072 34.9265 32.1033 35.1142 32.1659ZM36.2092 26.69C35.8964 27.1906 35.5835 27.7226 35.3645 28.2545C35.2394 28.5361 35.1143 28.8177 35.0204 29.0994C35.0204 29.1307 34.9891 29.1619 34.9891 29.1932C35.4897 28.6613 35.9589 28.098 36.4908 27.5661C36.4908 27.5661 36.5221 27.5348 36.5221 27.5035C36.4908 27.3471 36.4282 27.1906 36.3656 27.0654C36.3343 26.9403 36.2718 26.8151 36.2092 26.69ZM16.8753 53.0996C17.6261 52.6302 18.3769 52.1609 19.1278 51.7228C19.8473 51.316 20.5669 50.9092 21.2864 50.5024C22.0685 50.0644 22.8819 49.595 23.664 49.1569C24.321 48.7814 25.0093 48.4059 25.6663 48.0304C26.073 47.7801 26.511 47.5611 26.9177 47.3107C27.3244 47.0604 27.7311 46.8101 28.1378 46.5598C28.7947 46.1217 29.483 45.6836 30.14 45.2455C31.5478 44.3381 32.8617 43.3368 34.1757 42.3355C34.207 42.3042 34.2383 42.3042 34.2696 42.2729C33.9567 42.0851 33.6439 41.8661 33.3623 41.6471C33.2059 41.5219 33.0807 41.3967 33.0182 41.1777C32.9556 40.99 32.9869 40.7709 33.112 40.5832C33.2059 40.4267 33.3936 40.2703 33.5813 40.239C33.769 40.1764 34.0193 40.2077 34.1757 40.3328C34.5824 40.6458 35.0517 40.99 35.521 41.2403C35.5835 41.1464 35.6148 41.0212 35.6774 40.9274C35.8338 40.5832 36.0215 40.2077 36.1779 39.8635C36.3656 39.5193 36.5221 39.1751 36.7098 38.8309C37.0852 38.0799 37.4606 37.3289 37.8047 36.5779C38.055 36.0147 38.3053 35.4514 38.5556 34.8569C38.5243 34.8882 38.493 34.9195 38.4617 34.9508C37.179 36.046 35.8338 37.1099 34.5511 38.1738C33.9254 38.7057 33.2684 39.2064 32.6428 39.707C32.0171 40.239 31.3914 40.7396 30.7344 41.2716C30.0148 41.8348 29.3266 42.3981 28.5757 42.93C27.8875 43.4307 27.1992 43.9313 26.5109 44.432C25.8227 44.9326 25.1657 45.4333 24.5087 45.9339C23.7579 46.4972 23.0071 47.0604 22.2562 47.6237C21.6305 48.093 21.0048 48.5311 20.3791 49.0005C19.6283 49.5324 18.9088 50.0957 18.1579 50.6276C16.844 51.5976 15.53 52.6302 14.2473 53.6315C13.4027 54.2887 12.5267 54.9771 11.682 55.6655C11.0876 56.1348 10.4619 56.6355 9.86748 57.1049C9.77363 57.1674 9.71106 57.23 9.6172 57.2926C9.89876 57.1361 10.1803 57.011 10.4619 56.8545C11.1502 56.5103 11.8071 56.1661 12.4641 55.8219C12.9021 55.6029 13.3401 55.3838 13.7468 55.1335C14.1535 54.8832 14.5602 54.6641 14.9669 54.4138C15.5613 53.9445 16.2183 53.5064 16.8753 53.0996ZM39.9321 23.8112C40.5265 23.1541 41.1209 22.497 41.7153 21.8398C41.6215 21.746 41.5589 21.6521 41.4651 21.5582C41.4651 21.5582 41.4338 21.5582 41.4338 21.5269C41.1835 21.4643 40.9332 21.4331 40.6829 21.3705C40.3701 21.3079 40.0885 21.2453 39.7757 21.1514C39.2438 21.0263 38.6807 20.9324 38.1489 20.8385C37.7109 20.7759 37.2729 20.7134 36.8349 20.6821C36.4282 20.6195 36.0215 20.5882 35.6148 20.4943C34.7701 20.3379 33.9567 20.0875 33.1433 19.8998C32.2986 19.6808 31.4539 19.4617 30.6092 19.3053C30.2025 19.2114 29.8271 19.1488 29.4204 19.0549C28.9199 18.9611 28.4506 18.8672 27.95 18.7733C27.8562 18.7733 27.7623 18.742 27.6685 18.742C27.6685 18.8359 27.6372 18.8985 27.6372 18.9924C27.6059 19.1488 27.5746 19.3053 27.5121 19.4617C27.4495 19.7433 27.3556 20.0563 27.2618 20.3379C27.0428 20.9637 26.8551 21.5582 26.6361 22.184C26.4484 22.7473 26.2607 23.3418 26.073 23.905C25.854 24.5622 25.6037 25.2193 25.3221 25.8764C25.2596 26.0328 25.1657 26.2206 25.1031 26.377C25.0093 26.5648 24.9154 26.7838 24.8216 26.9716C24.6339 27.3471 24.4149 27.6913 24.2272 28.0668C23.7892 28.849 23.3199 29.6313 22.8506 30.4136C22.006 31.8843 21.13 33.3236 20.254 34.763C19.378 36.2024 18.5021 37.6418 17.5948 39.0186C16.6563 40.458 15.6864 41.8661 14.7479 43.3055C13.7781 44.7762 12.777 46.2781 11.8071 47.7488C11.4004 48.3746 11.025 49.0005 10.6183 49.6263C10.149 50.346 9.71106 51.097 9.24179 51.8167C8.74123 52.5989 8.20939 53.3812 7.70883 54.1322C7.23956 54.8519 6.80157 55.6342 6.36359 56.3852C5.98817 57.011 5.61276 57.6681 5.26862 58.2939C5.17477 58.4504 5.08092 58.6381 4.98706 58.7946C4.98706 58.7946 4.98706 58.7946 5.01835 58.7946C5.20606 58.6381 5.39376 58.4817 5.61276 58.3252C5.95689 58.0436 6.30102 57.762 6.64515 57.5116C7.27085 57.011 7.92782 56.5416 8.55352 56.0409C9.89876 54.9771 11.244 53.9132 12.5893 52.8493C13.9658 51.7541 15.3736 50.6902 16.7814 49.6263C18.1579 48.5624 19.5657 47.5611 20.9736 46.5285C21.5993 46.0904 22.1937 45.5897 22.8194 45.1517C23.5389 44.6197 24.2272 44.0565 24.9467 43.5558C26.3232 42.5545 27.6998 41.5845 29.045 40.5519C29.264 40.3954 29.4517 40.239 29.6707 40.0512C29.264 40.0199 28.8573 39.9261 28.4819 39.8322C28.2942 39.8009 28.0752 39.7383 27.8875 39.6757C27.7936 39.6444 27.6998 39.6132 27.5746 39.5819C27.5121 39.5819 27.4495 39.5506 27.3869 39.5193C27.2305 39.4567 27.1054 39.3628 26.9802 39.269C26.8238 39.1438 26.7612 38.8935 26.7612 38.7057C26.7612 38.4867 26.8551 38.2989 26.9802 38.1425C27.1366 37.986 27.3244 37.9234 27.5433 37.9234C27.6998 37.9234 27.8562 37.986 27.9813 38.0486C28.2316 38.1112 28.4819 38.1738 28.7322 38.2363C29.045 38.2989 29.3579 38.3928 29.702 38.4241C29.8897 38.4554 30.0774 38.4554 30.2338 38.4554C30.2338 38.4241 30.2651 38.4241 30.2651 38.3928C30.3277 38.2363 30.359 38.0486 30.4215 37.8609C30.4841 37.7044 30.5467 37.5167 30.6092 37.3602C30.7344 36.9847 30.8595 36.6405 30.9847 36.2963C31.2975 35.4514 31.5791 34.6379 31.8919 33.793C32.1422 33.042 32.3612 32.291 32.6115 31.5401C32.8617 30.6952 33.1433 29.8503 33.4562 29.0368C33.9254 27.7851 34.4886 26.5022 35.2707 25.407C35.3645 25.2506 35.4897 25.1254 35.6148 25.0002C35.7712 24.8751 35.8651 24.8125 36.0528 24.7499C36.1779 24.6873 36.3031 24.6873 36.4282 24.6873H36.4595C36.6159 24.6873 36.7723 24.7812 36.8975 24.8438C37.179 25.0002 37.3667 25.3757 37.5232 25.6573C37.617 25.8451 37.7109 26.0328 37.8047 26.2206C37.9612 26.0328 38.1176 25.8764 38.3053 25.6886C38.7746 25.0628 39.369 24.437 39.9321 23.8112ZM44.2494 46.4972C42.4349 47.2795 40.6516 48.0617 38.8371 48.8127C37.5545 49.3447 36.3031 49.8766 35.0204 50.4086C34.1444 50.7841 33.2372 51.1595 32.3612 51.5663C30.7031 52.286 29.0763 53.037 27.4182 53.7567C26.7299 54.0696 26.0104 54.3825 25.3221 54.6954C25.2908 54.6954 25.2596 54.7267 25.2283 54.7267C26.3858 54.4451 27.5121 54.1635 28.6696 53.8819C30.2964 53.5064 31.9545 53.1622 33.5813 52.7867C35.2394 52.4112 36.8662 52.0044 38.5243 51.6289C40.2137 51.2847 41.8718 50.9092 43.5298 50.5337C45.2505 50.1582 46.9399 49.7514 48.6293 49.3447C49.4427 49.1569 50.2561 48.9692 51.0382 48.7501C51.8516 48.5311 52.6963 48.3121 53.5097 48.093C54.3856 47.8427 55.2303 47.6237 56.1063 47.3733C56.513 47.2795 56.9197 47.1543 57.3264 47.0604C57.6705 46.9665 58.0147 46.8727 58.3588 46.7475C58.3588 46.6849 58.3901 46.6223 58.3901 46.5285C58.3901 46.5598 58.3901 46.5911 58.3901 46.6223C58.5152 45.7462 58.6404 44.9013 58.7968 44.0565C58.9219 43.3055 59.0471 42.5545 59.1722 41.8348C59.2348 41.3967 59.2661 40.9274 59.2661 40.4893C59.2661 40.3641 59.2661 40.239 59.2661 40.1138C58.6091 40.4267 57.9208 40.7396 57.2638 41.0525C56.5443 41.3967 55.8247 41.6784 55.0739 41.9913C54.6672 42.179 54.2918 42.3355 53.8851 42.5232C53.0404 42.8987 52.1957 43.2742 51.3197 43.6184C50.5063 43.9313 49.6616 44.2442 48.8482 44.5571C48.0974 44.8388 47.3466 45.183 46.5645 45.4959C45.8136 45.8714 45.0315 46.1843 44.2494 46.4972ZM41.4651 38.6431C40.6829 39.269 39.8695 39.8635 39.0561 40.458C38.2427 41.1151 37.398 41.7722 36.5533 42.3981C36.5533 42.3981 36.5221 42.4293 36.5221 42.4606C36.4282 42.5545 36.3344 42.6171 36.2405 42.6484C36.2092 42.6797 36.1779 42.711 36.1466 42.711C35.5522 43.149 34.9891 43.6184 34.3947 44.0565C33.8629 44.4633 33.331 44.87 32.7679 45.2455C32.1422 45.6836 31.5165 46.1217 30.8595 46.5598C30.2651 46.9353 29.702 47.342 29.1076 47.7175C28.7009 47.9679 28.2942 48.2495 27.8562 48.4998C27.5121 48.7188 27.1679 48.9066 26.8238 49.0943C26.1355 49.5011 25.4473 49.8453 24.7903 50.2521C23.9456 50.7215 23.1322 51.2221 22.2875 51.6915C21.6305 52.067 20.9736 52.4112 20.3166 52.7867C19.9412 53.0057 19.5345 53.2248 19.159 53.4751C18.7211 53.7567 18.2831 54.007 17.8764 54.2887C17.2507 54.6954 16.6563 55.1022 16.0306 55.4777C15.5613 55.7593 15.092 56.041 14.654 56.2913C14.3099 56.479 13.9658 56.6668 13.6529 56.8545C12.9021 57.2613 12.1513 57.6681 11.4004 58.0436C10.6183 58.4191 9.86748 58.7946 9.11664 59.2013C8.77251 59.3891 8.42838 59.5456 8.08425 59.7646C7.74012 59.9836 7.3647 60.1714 7.02057 60.3904C6.64515 60.6407 6.26974 60.8911 5.9256 61.1414C5.55019 61.3917 5.17477 61.6733 4.79935 61.8924C4.51779 62.0488 4.26751 62.2366 3.98595 62.393C4.04852 62.3617 4.11109 62.3305 4.17366 62.3305C4.61164 62.174 5.08092 62.0175 5.55019 61.8924C6.08203 61.7359 6.61387 61.5482 7.14571 61.3604C7.55241 61.204 7.92783 61.0475 8.30324 60.8911C9.8362 60.2027 11.3691 59.483 12.8708 58.732C14.4038 57.9497 15.9367 57.1987 17.501 56.479C18.2831 56.1348 19.0652 55.7593 19.8473 55.4151C20.7233 55.0396 21.568 54.6641 22.4439 54.2887C23.1948 53.9757 23.9456 53.6628 24.6651 53.3499C25.3847 53.037 26.1043 52.6928 26.7925 52.3799C28.4506 51.6602 30.1087 50.9092 31.7355 50.1582C33.331 49.4385 34.9265 48.7814 36.5221 48.1243C37.7734 47.5924 38.9936 47.0917 40.2449 46.5598C41.0271 46.2156 41.8092 45.8714 42.5913 45.5272C43.0293 45.3394 43.4673 45.1517 43.9053 44.9639C44.3745 44.7762 44.8438 44.5884 45.3444 44.4007C46.0639 44.1191 46.7835 43.8061 47.503 43.5245C48.2851 43.2116 49.0359 42.8987 49.8181 42.5858C50.6315 42.2729 51.4449 41.96 52.227 41.6471C52.7588 41.428 53.2594 41.1777 53.7912 40.9587C54.3544 40.7083 54.8862 40.4893 55.4493 40.239C55.9812 40.0199 56.513 39.8009 57.0136 39.5506C57.4828 39.3315 57.9521 39.1125 58.4214 38.8935C58.7655 38.737 59.0783 38.5805 59.4225 38.4241C59.5476 38.1425 59.8292 37.9234 60.142 37.9234C60.2359 37.9234 60.2985 37.9234 60.361 37.9547C60.4862 37.8921 60.6113 37.8296 60.7364 37.767C61.456 37.3915 62.1442 37.0473 62.8638 36.7344C62.9264 36.7031 62.9889 36.6718 63.0515 36.6718C63.0515 36.6718 63.0828 36.6718 63.0828 36.6405C63.2392 36.5779 63.3644 36.5153 63.5208 36.4528C63.6146 36.4215 63.6772 36.3902 63.7711 36.3589C63.9588 36.265 64.1778 36.2024 64.3655 36.1086C64.7409 35.9521 65.1163 35.8582 65.4917 35.7018C65.8984 35.5453 66.2738 35.3889 66.6805 35.2637C67.0247 35.1072 67.3688 34.9508 67.6816 34.7943C67.8068 34.7317 67.9319 34.6692 68.0571 34.6379C67.8068 34.4814 67.5252 34.3563 67.2749 34.1998C67.0247 34.0746 66.7744 33.9495 66.5241 33.8556C66.2738 33.7617 66.0548 33.6679 65.8046 33.574C65.523 33.4488 65.2414 33.3549 64.9599 33.2611C64.5219 33.1046 64.0526 32.9482 63.5833 32.7917C62.5197 32.4475 61.3934 32.1346 60.3297 31.7278C59.485 31.4149 58.6404 31.102 57.7957 30.7891C57.389 30.6326 56.9823 30.4762 56.5756 30.2884C56.2314 30.132 55.856 29.9755 55.5119 29.7878C54.7611 29.381 54.0102 28.9429 53.2594 28.5048C52.9465 28.3171 52.6024 28.098 52.3208 27.879C52.1644 27.7538 51.9767 27.6287 51.8203 27.5035C51.7577 27.4409 51.6639 27.3784 51.6013 27.3471C51.4136 27.2219 51.2572 27.0967 51.0382 27.0029C50.913 26.9403 50.8192 26.8151 50.7566 26.69C50.6315 26.9716 50.5063 27.2532 50.3812 27.5348C50.0371 28.2858 49.6929 29.0368 49.3801 29.7878C49.0359 30.6013 48.6918 31.4149 48.3164 32.2285C48.16 32.5727 48.0036 32.9169 47.8784 33.2611C47.7533 33.5114 47.6594 33.7617 47.5343 34.0433C47.4091 34.2937 47.284 34.544 47.1276 34.7943C46.9712 35.0134 46.8147 35.2324 46.5957 35.4202C46.5019 35.514 46.3768 35.5766 46.2516 35.6392C46.1578 35.7644 46.0326 35.8582 45.8762 35.9208C45.6259 35.9834 45.3443 35.9208 45.1254 35.7331C45.0628 35.8582 44.9689 35.9521 44.8438 36.0147C44.7187 36.1086 44.5935 36.1711 44.4997 36.265C44.2807 36.4215 44.0617 36.6092 43.8427 36.7657C43.0293 37.3602 42.2472 38.0173 41.4651 38.6431ZM39.2751 33.042C39.4315 32.6978 39.588 32.3536 39.7444 31.9781C40.3075 30.6013 40.8706 29.2245 41.5589 27.879C41.684 27.6287 41.8092 27.3471 41.9656 27.0967C42.2159 26.6274 42.4974 26.0954 43.0606 25.939C43.1231 25.9077 43.1857 25.9077 43.2483 25.9077C43.5611 25.9077 43.8427 26.1267 44.0304 26.377C44.093 26.4709 44.1555 26.5648 44.1868 26.6587C44.2807 26.8151 44.3745 26.9716 44.4371 27.1593C44.6248 27.5661 44.8125 28.0042 44.9377 28.4422C45.0628 28.849 45.1567 29.2558 45.2505 29.6626C45.5008 30.9142 45.7511 32.1659 46.0326 33.3862C46.2203 33.042 46.3767 32.6665 46.5332 32.3223C46.6896 31.9781 46.846 31.6339 46.9712 31.2897C47.3153 30.5388 47.6281 29.7565 47.9723 29.0055C48.5667 27.5974 49.2237 26.2206 49.8181 24.8125C50.0996 24.0615 50.3812 23.3418 50.6628 22.5908C50.9443 21.9024 51.1633 21.1827 51.4136 20.463C51.6639 19.712 51.8829 18.9298 52.1019 18.1788C52.1957 17.8033 52.2896 17.3965 52.4147 17.021C52.4773 16.8333 52.5086 16.6142 52.5398 16.4265C52.3834 16.1449 52.446 15.7694 52.6963 15.519C52.7901 15.4252 52.8527 15.3626 52.9465 15.3C52.9153 15.3 52.884 15.3 52.884 15.3C52.665 15.3 52.4147 15.3 52.1957 15.3C51.2572 15.3 50.2561 15.2374 49.3488 15.0184C49.0985 15.3939 48.8482 15.7694 48.598 16.1449C48.1913 16.6768 47.8158 17.2088 47.4091 17.7094C47.3153 17.8033 47.2527 17.8972 47.1589 18.0223C47.1589 18.0536 47.1589 18.0849 47.1276 18.1162C47.065 18.3665 46.846 18.5543 46.627 18.6481C45.7511 19.6808 44.8751 20.7134 43.9678 21.7147C42.8416 22.9976 41.684 24.2805 40.5265 25.5322C39.9634 26.1267 39.4003 26.7212 38.8684 27.3158C38.6807 27.5348 38.4617 27.7226 38.274 27.9416C38.3053 28.0668 38.3366 28.1919 38.3679 28.3171C38.5556 29.2245 38.712 30.132 38.8997 31.0394C38.9936 31.4462 39.0561 31.853 39.15 32.2598C39.1813 32.5101 39.2125 32.7604 39.2751 33.042ZM39.6193 2.87746C39.7757 3.06521 39.807 3.31554 39.8382 3.56587C39.8695 3.75362 39.8695 3.91007 39.8695 4.09781C39.8695 4.53589 39.8695 4.94267 39.8695 5.38075C39.8695 6.16302 39.8695 6.9453 39.8695 7.75887C39.8695 8.60373 39.8695 9.44858 39.8695 10.2622C39.8695 10.7002 39.8695 11.1383 39.8695 11.5451C39.8695 12.1083 39.9008 12.6716 39.9634 13.2348C39.9947 13.3287 39.9947 13.4538 40.026 13.5477C40.2762 13.7042 40.5265 13.8606 40.7768 14.0797C40.9958 14.2674 41.2148 14.4239 41.4025 14.6116C41.684 14.7994 41.9656 14.9871 42.2472 15.1748C42.56 15.3626 42.8103 15.5816 43.1231 15.7381C43.7175 16.051 44.3432 16.3013 44.9689 16.5829C45.3131 16.7081 45.6572 16.8333 46.0013 16.9584C46.189 16.7394 46.3768 16.4891 46.5645 16.27C47.0024 15.6755 47.4404 15.081 47.8471 14.4864C47.722 14.4239 47.5968 14.3613 47.4717 14.2674C46.5019 13.6416 45.7198 12.7028 45.3756 11.6077C45.0941 10.7315 45.0941 9.79279 45.1254 8.88535C45.1566 7.97791 45.2505 7.03917 45.5946 6.19432C46.0326 5.06784 46.6896 4.03524 47.6594 3.28425C48.1287 2.90876 48.6605 2.56456 49.1924 2.31423C49.6929 2.03261 50.2561 1.78228 50.7879 1.62582C51.1007 1.53195 51.4136 1.46936 51.7577 1.43807C51.9454 1.40678 52.1331 1.40679 52.3208 1.40679C52.4147 1.40679 52.5086 1.40679 52.5711 1.40679C52.884 1.43808 53.1655 1.50066 53.4471 1.56324C53.6348 1.62583 53.8225 1.65712 54.0102 1.7197C54.1354 1.62583 54.3231 1.56324 54.4795 1.56324C54.6985 1.56324 54.8549 1.65711 55.0426 1.78228C55.1052 1.81357 55.1365 1.87615 55.199 1.90744C55.2303 1.93873 55.2303 1.93873 55.2616 1.93873C55.5432 2.0326 55.856 2.09519 56.1376 2.15777C56.3253 2.22035 56.513 2.25165 56.7007 2.31423C56.951 2.4081 57.17 2.50197 57.389 2.62714C57.7018 2.81488 57.9834 3.06521 58.2337 3.34683C58.5152 3.62845 58.7655 3.91007 59.0471 4.19169C59.3286 4.47331 59.6415 4.75493 59.8918 5.06784C60.0482 5.22429 60.1733 5.38075 60.2985 5.5372C60.6113 5.91269 60.9241 6.31948 61.1431 6.78884C61.3934 7.2895 61.5811 7.82145 61.6437 8.38469C61.675 8.91664 61.6437 9.44858 61.5186 9.94924C61.3934 10.5751 61.1744 11.1696 60.799 11.6702C60.4862 12.1083 60.1107 12.4838 59.704 12.828C58.7968 13.5477 57.7644 14.0797 56.7007 14.4864C56.4504 14.5803 56.2002 14.6742 55.9499 14.7368C55.6057 14.8619 55.2303 14.9871 54.8549 15.0497C54.4795 15.1436 54.1041 15.2061 53.7287 15.2374H53.7599C54.0102 15.3939 54.1354 15.6442 54.1354 15.9258C54.1354 16.0823 54.1354 16.2387 54.1041 16.3639C54.2605 16.3952 54.3856 16.4578 54.5108 16.5517C54.8862 16.8959 55.2616 17.2401 55.637 17.5843C55.9499 17.8346 56.294 18.0849 56.6069 18.3665C56.7946 18.523 56.9823 18.6794 57.17 18.8359C57.3264 18.9924 57.4828 19.1488 57.6392 19.3053C58.1085 19.7746 58.5152 20.3066 58.8594 20.8385C59.0784 21.1827 59.2973 21.5269 59.5163 21.8398C59.6415 21.9963 59.7666 22.184 59.8605 22.3405C59.923 22.4031 59.9543 22.4657 60.0169 22.5595C60.1107 22.6847 60.142 22.8099 60.1733 22.9663C60.2359 23.1541 60.2046 23.3105 60.142 23.467C60.0482 23.8112 59.7353 24.0928 59.4538 24.2805C59.2348 24.437 58.9845 24.5622 58.7655 24.6873C58.4527 24.8438 58.1398 24.9376 57.827 25.0941C57.4515 25.2506 57.0761 25.3757 56.7007 25.5009C56.3253 25.6261 55.9186 25.7825 55.5432 25.939C55.1678 26.0641 54.8236 26.1893 54.4482 26.3457C54.1041 26.4709 53.7287 26.5648 53.3845 26.69C53.322 26.7212 53.2594 26.7212 53.2281 26.7525C53.2594 26.7525 53.2594 26.7838 53.2907 26.7838C53.6974 27.0654 54.1041 27.2845 54.5108 27.5348C54.9488 27.7851 55.3868 28.0668 55.856 28.2858C56.075 28.411 56.3253 28.5361 56.5443 28.6613C56.7946 28.7864 57.0136 28.8803 57.2638 29.0055C58.6404 29.5687 60.0482 30.1007 61.456 30.57C62.1755 30.8204 62.8951 31.0394 63.6146 31.2584C64.3342 31.5088 65.0537 31.7278 65.742 31.9781C66.5554 32.2598 67.3375 32.604 68.0884 33.0107C68.3699 33.1672 68.6828 33.3237 68.933 33.4801C69.1833 33.6366 69.4336 33.793 69.6213 34.0121C69.8403 34.2311 69.9654 34.4501 69.9967 34.763C70.0593 35.4827 69.2146 35.7956 68.6515 36.0773C68.2761 36.2337 67.9319 36.4215 67.5565 36.5779C67.1185 36.7657 66.6805 36.9534 66.2113 37.1099C65.4917 37.3915 64.7722 37.6418 64.0526 37.9234C64.0213 37.9234 63.99 37.9547 63.9275 37.9547C63.7711 38.0173 63.6146 38.0799 63.4582 38.1425C63.2705 38.2363 63.0828 38.2989 62.8951 38.3928C62.551 38.5493 62.2068 38.737 61.8627 38.8935C61.4873 39.0812 61.1431 39.269 60.7677 39.4254C60.7677 39.8948 60.7677 40.3954 60.7364 40.8961C60.7052 41.5219 60.6113 42.179 60.5174 42.8048C60.3297 43.9939 60.0795 45.2142 59.923 46.4033C59.8918 46.6536 59.8917 46.9353 59.8292 47.1856C59.7666 47.4359 59.6728 47.7175 59.4851 47.9053C59.3599 47.9991 59.2348 48.1243 59.1096 48.1869C59.0158 48.2182 58.9219 48.2808 58.8281 48.3121C58.4839 48.4372 58.1398 48.5624 57.7644 48.625C57.0761 48.8127 56.3879 49.0005 55.6996 49.1882C55.0113 49.376 54.2918 49.5637 53.6035 49.7827C52.8214 50.0018 52.0706 50.1895 51.2885 50.4086C50.4438 50.6276 49.5678 50.8153 48.7231 51.0344C47.9723 51.2221 47.2214 51.4099 46.5019 51.5663C44.8438 51.9731 43.1544 52.3173 41.4963 52.6928C39.807 53.0683 38.1489 53.4125 36.4595 53.8193C35.521 54.0383 34.6137 54.2574 33.6752 54.4764C32.9243 54.6641 32.1422 54.7893 31.3914 54.9771C29.7333 55.3525 28.1065 55.728 26.4797 56.1348C25.6663 56.3226 24.8216 56.5416 24.0082 56.7294C23.5702 56.8232 23.1635 56.9171 22.7255 56.9797C22.4752 57.0423 22.2249 57.0736 21.9434 57.1049C21.4428 57.1987 20.9736 57.2613 20.5356 57.4178C20.3791 57.4803 20.2227 57.5742 20.0663 57.6368C19.8786 57.7307 19.6909 57.762 19.4719 57.7307C19.3155 57.6994 19.1903 57.6055 19.0965 57.4803C18.7523 57.6368 18.4082 57.7932 18.0641 57.9497C16.4998 58.6694 14.9356 59.4517 13.4026 60.234C11.901 60.9849 10.3993 61.7046 8.86637 62.3617C8.42838 62.5495 7.9904 62.7372 7.55241 62.8937C7.39599 62.9563 7.20828 63.0188 7.05186 63.0814C6.86415 63.144 6.64515 63.2379 6.45744 63.3005C5.67533 63.5508 4.86193 63.8011 4.07981 64.0828C3.92338 64.1453 3.79824 64.2079 3.67311 64.2705C3.29769 64.4269 2.95355 64.6773 2.60942 64.8963C2.453 65.0215 2.20272 65.0215 2.01501 64.9589C1.82731 64.8963 1.6396 64.7712 1.54574 64.6147C1.45189 64.427 1.4206 64.2079 1.45189 64.0202C1.48317 63.9576 1.51446 63.8637 1.54574 63.8324C1.51446 63.7698 1.51446 63.676 1.51446 63.6134C1.35803 63.5508 1.20161 63.4256 1.10776 63.3005C0.888766 62.925 1.0139 62.4556 1.38932 62.2366C1.60831 62.1114 1.82731 61.955 2.0463 61.8298C1.98373 61.6733 1.95244 61.5169 2.01501 61.3604C2.20272 60.8285 2.42171 60.2652 2.70328 59.7646C2.89099 59.4204 3.07869 59.0449 3.2664 58.7007C3.4854 58.3252 3.70439 57.9184 3.92338 57.5429C4.33009 56.8232 4.73679 56.1035 5.17477 55.3838C5.42505 54.9771 5.64404 54.5703 5.89432 54.1635C6.1446 53.788 6.39488 53.3812 6.64515 53.0057C7.11442 52.286 7.5837 51.5663 8.05297 50.8466C8.45967 50.2208 8.83508 49.595 9.24179 48.9379C9.71106 48.1869 10.1803 47.4359 10.6496 46.6849C11.5569 45.3081 12.4954 43.9 13.4026 42.5232C14.3412 41.0838 15.311 39.6757 16.2496 38.2363C17.2194 36.7031 18.1579 35.1698 19.0965 33.6053C19.9724 32.1659 20.8171 30.6952 21.6618 29.2558C22.0685 28.5361 22.5065 27.8477 22.9132 27.128C23.1322 26.7525 23.3199 26.377 23.5076 25.9703C23.664 25.6261 23.8205 25.2506 23.9769 24.9064C24.1646 24.437 24.321 23.9363 24.4774 23.4357C24.6651 22.8724 24.8216 22.3405 25.0093 21.8085C25.3534 20.7446 25.7601 19.7121 25.9791 18.6169C26.0104 18.4604 26.0417 18.304 26.073 18.1162C26.1668 17.8346 26.3545 17.6155 26.6048 17.4904C26.8238 17.3652 27.0741 17.3339 27.3244 17.3339C27.3556 17.3339 27.3869 17.3339 27.4182 17.3339C27.6998 17.3339 27.9813 17.3652 28.2629 17.4278C28.7634 17.5217 29.264 17.6155 29.7646 17.7094C30.5467 17.8659 31.3288 18.0223 32.0796 18.2101C32.9556 18.4291 33.8316 18.6482 34.6763 18.8672C35.4584 19.0862 36.2718 19.2114 37.0852 19.3053C37.5545 19.3678 38.0237 19.4304 38.493 19.493C38.931 19.5556 39.369 19.6495 39.807 19.7433C40.2449 19.8372 40.6829 19.9624 41.0896 20.025C41.2773 20.0563 41.4963 20.0875 41.684 20.1501C41.9343 20.244 42.1846 20.3692 42.3723 20.5569C42.4349 20.6195 42.4974 20.6821 42.56 20.7759C42.779 20.5256 42.998 20.2753 43.217 20.0562C43.7176 19.493 44.2181 18.8985 44.6874 18.3352L44.7187 18.304C44.4371 18.2101 44.1555 18.0849 43.9053 17.991C43.3734 17.7407 42.8103 17.5217 42.2785 17.2713C41.9969 17.1462 41.7466 16.9584 41.4963 16.802C41.2773 16.6455 41.0271 16.4891 40.7768 16.3326C40.3075 16.0197 39.8695 15.6442 39.4315 15.3C39.2438 15.1748 39.0561 15.0497 38.8684 14.9245C38.3366 14.549 38.2427 13.9232 38.1802 13.3287C38.1489 12.9845 38.1176 12.609 38.1176 12.2648C38.1176 11.858 38.0863 11.4199 38.0863 11.0131C38.0863 10.1683 38.0863 9.32342 38.0863 8.47856C38.0863 7.66499 38.0863 6.85143 38.0863 6.03786C38.0863 5.63108 38.0863 5.2243 38.0863 4.81751C38.0863 4.5046 38.0863 4.19169 38.0863 3.87878C38.055 3.84749 38.055 3.84749 38.0237 3.81619C37.8047 3.65974 37.5857 3.50329 37.3355 3.37812C37.179 3.28425 36.9913 3.19038 36.8662 3.06521C36.7411 2.90876 36.6159 2.7523 36.5221 2.56455C36.4282 2.37681 36.3656 2.18906 36.3031 2.00132C36.2405 1.81357 36.2718 1.56324 36.3969 1.40679C36.4908 1.21904 36.6785 1.09388 36.8662 1.03129C36.9288 1.03129 36.9913 1 37.0852 1C37.2103 1 37.3667 1.0313 37.4919 1.09388C37.6796 1.21904 37.7734 1.3755 37.836 1.56324C37.8673 1.65712 37.9299 1.75099 37.9612 1.87615C37.9612 1.87615 37.9612 1.87615 37.9612 1.90744C38.2114 2.06389 38.493 2.18906 38.712 2.3768C39.15 2.43939 39.4003 2.62713 39.6193 2.87746ZM38.931 38.6118C39.369 38.2676 39.8382 37.9547 40.2762 37.6105C41.1835 36.8595 42.0595 36.1086 42.998 35.3889C43.0293 35.3576 43.0293 35.3576 43.0606 35.3263C42.8103 35.295 42.5913 35.2637 42.341 35.2324C41.903 35.1698 41.4963 35.1072 41.0583 35.0447C40.7455 34.9821 40.4326 34.9508 40.1198 34.8882C40.0885 34.9821 40.0259 35.076 39.9947 35.1698C39.6505 35.9521 39.3064 36.7344 38.9623 37.5479C38.712 38.1112 38.4304 38.6431 38.1489 39.2064C38.4304 39.0186 38.6807 38.7996 38.931 38.6118Z" fill="#A6A7A1" stroke="#A6A7A1"/>
</svg>
