<svg width="63" height="90" viewBox="0 0 63 90" fill="none" xmlns="http://www.w3.org/2000/svg">
<path d="M43.4944 31.4493C43.5347 31.4493 43.575 31.4493 43.6153 31.4493C43.575 31.4493 43.5347 31.4493 43.4944 31.4493ZM23.618 29.7157C25.7951 29.635 27.9722 29.635 30.1897 29.635C32.3265 29.635 34.5036 29.635 36.6405 29.635C37.729 29.635 38.8176 29.635 39.9465 29.635C40.9947 29.635 42.043 29.5947 43.0912 29.4737C43.1718 29.4737 43.2928 29.4334 43.3734 29.4334C43.5347 29.3931 43.6556 29.4334 43.8169 29.4737C43.9379 29.5141 44.0588 29.5544 44.1395 29.635C44.3814 29.756 44.5426 29.9979 44.5829 30.2398C44.5829 30.3607 44.6233 30.4817 44.6233 30.6026C44.6636 30.8445 44.5023 31.1267 44.4217 31.3686C44.3007 31.6912 44.1395 32.0137 43.9782 32.3363C43.8169 32.6991 43.696 33.062 43.5347 33.4651C43.4138 33.7877 43.2928 34.1102 43.1718 34.4328C43.575 34.5537 43.9782 34.6747 44.3814 34.7956C44.7845 34.8762 45.1877 34.9569 45.5909 35.0375C45.7925 35.0778 45.9537 35.1182 46.1553 35.1585C46.236 35.1988 46.3166 35.1988 46.3972 35.2391C46.5988 35.3197 46.8004 35.3601 46.9617 35.5213C47.0423 35.602 47.1229 35.7229 47.2036 35.8439C47.4052 36.1664 47.3648 36.4889 47.2842 36.8518C47.2439 37.0534 47.1229 37.255 47.002 37.3759C46.9213 37.4969 46.8407 37.5775 46.7601 37.6985C46.5182 37.9404 46.2763 38.142 45.994 38.3839C45.3087 38.9483 44.6233 39.4724 43.9782 40.0369C43.9379 40.0772 43.8976 40.1175 43.8169 40.1578C44.5023 40.0369 45.1877 39.8353 45.8731 39.6337C46.6794 39.3918 47.4455 39.0692 48.2115 38.7467C49.0178 38.3839 49.8242 38.021 50.6708 37.6985C51.3966 37.4162 52.1626 37.1743 52.8883 36.8921C52.8077 36.8115 52.6867 36.7308 52.6061 36.6502C52.0013 36.247 51.4369 35.9245 50.7918 35.602C50.429 35.481 50.1064 35.3197 49.7436 35.1988C49.542 35.1182 49.3807 35.0778 49.1791 34.9972C48.9775 34.9166 48.655 34.8359 48.534 34.6747C48.3728 34.5134 48.2518 34.3521 48.1712 34.1102C48.1309 33.9893 48.0905 33.8683 48.0905 33.7071C48.0502 33.062 48.3325 32.4169 48.5744 31.8525C48.655 31.6509 48.7759 31.4493 48.8969 31.2074C49.0582 30.8848 49.2194 30.6026 49.3807 30.3204C49.421 30.1995 49.4613 30.1188 49.5017 30.0382C49.5823 29.8366 49.7839 29.635 49.9855 29.5141C50.187 29.4334 50.3886 29.3125 50.5902 29.3125C50.8724 29.2722 51.1547 29.2318 51.3966 29.1915C51.7191 29.1512 52.082 29.1512 52.4045 29.1512C53.1302 29.1512 53.8156 29.1512 54.5413 29.1109C55.1864 29.1109 55.7911 29.1109 56.4362 29.1109C56.8797 29.1109 57.3232 29.1109 57.807 29.1109C57.8473 28.6271 57.8473 28.103 57.8876 27.6191C57.928 26.5709 57.928 25.5227 58.0489 24.4744C58.1699 23.3858 58.2505 22.257 58.3714 21.1684C58.4521 20.1605 58.573 19.1122 58.7343 18.064C58.8956 16.9351 59.0165 15.7659 59.1778 14.637C59.2584 14.0322 59.3391 13.4275 59.3794 12.8227C59.4197 12.1373 59.46 11.4519 59.5003 10.7665C59.5406 10.0812 59.6213 9.39576 59.7019 8.75068C59.7825 8.14592 59.9035 7.58148 59.9841 7.01703C60.0648 6.37196 60.0648 5.72689 60.0648 5.08181C60.0648 4.71896 60.0648 4.3561 60.0648 4.03356C60.0648 3.91261 60.0648 3.79166 60.0648 3.63039C59.1778 3.54975 58.2505 3.54976 57.3635 3.50944C56.7588 3.50944 56.1943 3.46912 55.6299 3.46912C54.4607 3.4288 53.2915 3.4288 52.1223 3.4288C51.1143 3.4288 50.1064 3.4288 49.0582 3.4288C48.534 3.4288 48.0502 3.4288 47.5261 3.4288C46.9617 3.46912 46.3569 3.46912 45.7925 3.50944C44.6233 3.59008 43.4137 3.6707 42.2445 3.79165C41.2769 3.87229 40.3093 3.99325 39.3417 4.07388C38.0919 4.19483 36.8824 4.31578 35.6325 4.43673C34.6246 4.55768 33.657 4.67863 32.649 4.75927C31.6008 4.88022 30.5122 5.00118 29.4237 5.08181C28.2948 5.16245 27.2062 5.24308 26.0773 5.32372C23.9002 5.44467 21.7231 5.60594 19.5459 5.72689C18.9815 5.76721 18.3767 5.7672 17.8123 5.80752C17.2882 5.80752 16.764 5.88816 16.2399 5.92848C15.7561 5.96879 15.2723 6.04942 14.7482 6.08974C14.2241 6.17038 13.6596 6.21069 13.1355 6.29133C11.6438 6.49291 10.152 6.81545 8.74091 7.33958C8.53932 7.42021 8.33774 7.54116 8.17647 7.66211C7.85393 7.82338 7.5314 7.94433 7.20886 8.02496C6.96696 8.1056 6.72505 8.14591 6.48315 8.18623C6.44283 8.18623 6.40251 8.18623 6.3622 8.18623C6.28156 10.7665 6.32188 13.3468 6.28156 15.9271C6.28156 16.4916 6.24124 17.056 6.24124 17.5802C6.20093 18.9106 5.95902 20.2008 5.63648 21.4506C5.39458 22.5392 5.11236 23.6277 4.83014 24.676C4.54792 25.7242 4.18506 26.8128 3.90284 27.8611C3.78189 28.3449 3.62062 28.869 3.49967 29.3528C3.45935 29.5141 3.41904 29.6753 3.37872 29.8366C3.62063 29.8366 3.90284 29.8769 4.14475 29.8769C6.32188 29.9172 8.499 29.9172 10.7165 29.9172C12.9339 29.9172 15.1514 29.9172 17.3285 29.9172C19.3444 29.8769 21.4812 29.7963 23.618 29.7157ZM30.996 31.6509C28.8189 31.6509 26.6418 31.6106 24.4243 31.6912C22.1666 31.7718 19.9491 31.8525 17.6913 31.8525C15.5142 31.8525 13.3371 31.8525 11.1196 31.8525C8.98281 31.8525 6.846 31.8525 4.66887 31.8525C4.0238 31.8525 3.37872 31.8525 2.77396 31.7718C2.53206 31.7315 2.29015 31.7315 2.04825 31.6912C1.88698 31.6509 1.72571 31.5702 1.56445 31.4896C1.40318 31.409 1.20159 31.2074 1.12095 31.0461C1 30.8445 1 30.6429 1 30.4414C1 30.2398 1.08064 30.0382 1.12095 29.8769C1.16127 29.756 1.20159 29.635 1.20159 29.5544C1.44349 28.5464 1.6854 27.5385 1.96762 26.5306C2.29016 25.4823 2.61269 24.4341 2.8546 23.3858C2.97555 22.8617 3.13682 22.3376 3.25777 21.8135C3.49967 20.8459 3.74158 19.9186 3.86253 18.9509C4.10443 17.0157 4.06411 15.0402 4.06411 13.1049C4.06411 11.4116 4.06411 9.75861 4.14475 8.06528C4.14475 8.02497 4.14475 7.98465 4.14475 7.94434C4.02379 7.78307 3.94316 7.54116 3.98348 7.37989C3.98348 7.25893 4.02379 7.13799 4.02379 7.01703C4.06411 6.9364 4.10443 6.85576 4.14475 6.77513C4.18506 6.73481 4.18506 6.65418 4.22538 6.61386C4.46728 6.17037 5.03173 6.0091 5.47522 6.17037C5.59617 6.17037 5.75744 6.13006 5.87839 6.08974C6.20093 6.04942 6.52346 5.96879 6.846 5.84784C7.0879 5.72688 7.28949 5.60594 7.53139 5.48498C7.85393 5.32371 8.17647 5.20276 8.53932 5.08181C9.10377 4.88022 9.70852 4.71895 10.3133 4.598C10.9987 4.47705 11.6841 4.31578 12.3695 4.23515C13.0549 4.15451 13.6999 4.07387 14.3853 3.99324C15.3933 3.87229 16.4415 3.75134 17.4898 3.67071C18.6186 3.63039 19.7878 3.54976 20.9167 3.50944C23.0939 3.38849 25.3113 3.22722 27.4884 3.06595C28.0529 3.02563 28.6173 2.98531 29.1818 2.94499C29.7059 2.90467 30.2703 2.86436 30.7945 2.82404C31.8024 2.74341 32.77 2.62246 33.7376 2.50151C35.9954 2.21929 38.2128 2.05801 40.4706 1.81611C41.5188 1.69516 42.5671 1.61452 43.6153 1.53389C44.2604 1.49357 44.9055 1.45326 45.5506 1.41294C46.0747 1.37262 46.6391 1.37262 47.2036 1.3323C47.9696 1.29198 48.7759 1.29199 49.542 1.29199C49.7839 1.29199 49.9855 1.29199 50.2274 1.29199C51.3562 1.29199 52.4448 1.29199 53.5737 1.29199C54.7429 1.29199 55.9121 1.3323 57.0813 1.37262C57.6861 1.37262 58.2908 1.41294 58.8956 1.41294C59.2987 1.41294 59.7019 1.45326 60.0648 1.49358C60.4276 1.5339 60.7502 1.57421 61.0727 1.69516C61.4759 1.85643 61.8387 2.13865 61.9597 2.58214C62 2.78372 62 2.98531 62 3.1869C62 4.19483 62 5.20276 62 6.21069C62 6.77513 61.879 7.29925 61.7984 7.82338C61.7178 8.26687 61.6775 8.71037 61.5968 9.15386C61.4759 10.2424 61.4356 11.3713 61.3952 12.4599C61.3146 13.5887 61.1533 14.6773 60.9921 15.8062C60.9114 16.4916 60.8308 17.177 60.7502 17.8624C60.6695 18.4671 60.5889 19.1122 60.5083 19.717C60.3873 21.0878 60.2664 22.4182 60.1454 23.789C60.1051 24.3535 60.0245 24.9582 60.0245 25.5226C59.9841 26.0065 59.9841 26.4903 59.9841 26.9741C59.9841 27.5385 59.9841 28.103 59.9438 28.6271C59.9035 29.0706 59.8632 29.5141 59.7019 29.9172C59.6213 30.1188 59.5406 30.3204 59.3794 30.4414C59.2584 30.5623 59.0165 30.7639 58.8553 30.7639C58.5327 30.8042 58.2102 30.8445 57.928 30.8445C57.1619 30.8848 56.3959 30.8848 55.6299 30.8848C55.3477 30.8848 55.0251 30.8848 54.7429 30.8848C54.2188 30.8848 53.735 30.8848 53.2108 30.8848C52.5658 30.8848 51.961 30.8848 51.3159 30.9655C51.0337 31.5299 50.7515 32.054 50.4693 32.6185C50.4289 32.7394 50.3886 32.8201 50.3483 32.941C50.5096 33.0217 50.7112 33.062 50.8724 33.1426C51.3159 33.3039 51.7997 33.4651 52.2029 33.6667C52.6061 33.8683 52.9689 34.0699 53.3318 34.3118C53.4931 34.3924 53.6543 34.5134 53.8156 34.6343C53.9769 34.7553 54.0978 34.8359 54.2591 34.9569C54.38 35.0375 54.501 35.1585 54.6219 35.2391C54.7429 35.3601 54.9042 35.5213 54.9848 35.6423C55.0654 35.8035 55.1864 35.9648 55.2267 36.1261C55.2267 36.247 55.267 36.368 55.267 36.5293C55.267 36.6099 55.2267 36.6905 55.2267 36.8115C55.2267 36.9727 55.1864 37.0937 55.1057 37.2146C54.9445 37.4969 54.7832 37.7791 54.5413 37.9807C54.4607 38.0613 54.38 38.1419 54.2591 38.2226C54.2188 38.2629 54.1785 38.2629 54.1381 38.3032C54.0172 38.3435 53.8962 38.4242 53.7753 38.4645C53.6946 38.5048 53.614 38.5451 53.4931 38.5451C53.3318 38.6258 53.1302 38.6661 52.9689 38.7467C52.2432 39.0289 51.5175 39.3112 50.7918 39.5934C50.4693 39.7546 50.1064 39.8756 49.7839 40.0369C49.2598 40.2788 48.7356 40.5207 48.1712 40.7223C47.6067 40.9238 47.0423 41.1254 46.4779 41.327C46.0344 41.4883 45.5506 41.6092 45.0668 41.7302C44.6636 41.8108 44.2201 41.8915 43.8169 41.9318C43.0912 42.0527 42.2849 42.093 41.5592 41.8915C41.3172 41.8511 41.1157 41.7302 40.9544 41.5689C40.8334 41.448 40.6722 41.2061 40.6722 41.0851C40.6319 40.8835 40.5915 40.7223 40.6722 40.4803C40.7125 40.2788 40.8334 40.1175 40.9544 39.9562C41.1157 39.7546 41.3576 39.5934 41.5592 39.3918C41.9623 39.0289 42.3655 38.6661 42.7687 38.3435C43.1718 37.9807 43.575 37.6178 44.0185 37.2953C44.2604 37.0937 44.5023 36.9324 44.7039 36.7309C44.7845 36.6905 44.8249 36.6099 44.9055 36.5696C44.7442 36.5293 44.5829 36.4889 44.3814 36.4486C44.0588 36.368 43.7363 36.3277 43.4137 36.2067C43.1315 36.1261 42.809 36.0051 42.5268 35.8842C42.0833 35.6826 41.7204 35.3601 41.5188 34.9166C41.2366 34.3118 41.3979 33.7071 41.6398 33.1023C41.7607 32.7798 41.8817 32.4572 42.0026 32.1347C42.1236 31.8525 42.2042 31.5702 42.3252 31.288C41.8011 31.3283 41.2366 31.3686 40.7125 31.3686C39.6642 31.3686 38.6563 31.3686 37.6081 31.3686C35.2697 31.6509 33.1329 31.6509 30.996 31.6509Z" fill="#A6A7A1" stroke="#A6A7A1"/>
<path d="M27.4865 78.2578C27.4462 78.2175 27.4462 78.1772 27.4059 78.1368C27.4462 78.2175 27.4462 78.2175 27.4865 78.2578ZM43.6134 67.8559C43.5328 67.3318 43.4118 66.848 43.2102 66.4045C42.8474 65.5982 42.3636 64.7918 41.8394 64.1064C41.396 63.542 40.9121 63.0179 40.3477 62.4937C39.8639 62.0099 39.3398 61.6068 38.7753 61.1633C38.2109 60.7601 37.6465 60.3569 37.0417 59.9941C37.2836 61.002 37.5255 62.0099 37.7674 63.0179C37.8884 63.542 37.9287 64.0258 38.0093 64.5499C38.0899 65.0741 38.1706 65.5982 38.2915 66.1626C38.3722 66.7271 38.4931 67.2512 38.6544 67.7753C38.7753 68.2994 38.9769 68.8236 39.0979 69.3477C39.3398 70.154 39.5414 70.9604 39.8236 71.7667C40.6299 71.7667 41.4766 71.7667 42.3233 71.7667C42.3233 71.7667 42.3636 71.7264 42.3636 71.6861C42.7264 71.162 43.0893 70.6378 43.3312 70.0734C43.4925 69.7105 43.5731 69.3074 43.6537 68.9042C43.6537 68.5413 43.6537 68.1785 43.6134 67.8559ZM19.3424 69.7105C19.7456 70.5975 20.31 71.3635 20.8342 72.1296C20.9148 72.1296 21.0357 72.1296 21.1164 72.1296C21.1567 71.9683 21.2373 71.807 21.3583 71.6861C21.3583 71.6861 21.3583 71.6861 21.3986 71.6861C21.5195 71.2829 21.6002 70.8797 21.6808 70.4766C21.963 69.4283 22.2049 68.3801 22.4872 67.3318C22.6081 66.8077 22.7291 66.2433 22.8903 65.7191C23.0113 65.195 23.1726 64.7112 23.2532 64.1871C23.4548 63.0985 23.6967 62.0099 23.8983 60.9214C24.0192 60.2763 24.1402 59.5909 24.3014 58.9458C23.2129 59.8328 22.2049 60.8004 21.318 61.9293C20.7132 62.7357 20.2294 63.542 19.8262 64.4693C19.5037 65.2353 19.2618 66.0417 19.1408 66.8883C19.0602 67.4931 19.0199 68.0978 19.0602 68.7429C19.1005 69.0251 19.2215 69.388 19.3424 69.7105ZM26.1157 82.9346C25.6722 82.9346 25.1884 82.9346 24.7449 82.9346C23.9386 83.6603 23.1322 84.4263 22.2856 85.1521C21.8421 85.5552 21.3986 85.9181 20.9954 86.3212C21.0357 86.3212 21.0761 86.3212 21.1164 86.3212C21.6405 86.3212 22.1243 86.3212 22.6484 86.3212C23.737 86.3212 24.7852 86.3213 25.8738 86.2406C28.0913 86.1197 30.3087 85.8778 32.4858 85.7568C33.01 85.7165 33.5341 85.7165 34.0582 85.7165C34.542 85.7165 35.0258 85.6762 35.5096 85.6359C36.0338 85.5955 36.5579 85.5955 37.082 85.5955C37.2433 85.5955 37.3642 85.5955 37.5255 85.5955C37.6061 85.5955 37.6464 85.5955 37.7271 85.5955C37.5255 85.1924 37.2836 84.8295 37.082 84.4263C36.7998 83.9425 36.6385 83.4184 36.4773 82.854C36.2757 82.854 36.1144 82.8137 35.9128 82.8137C35.0661 82.7733 34.2195 82.7733 33.3728 82.7733C33.1712 82.7733 33.01 82.7733 32.8084 82.7733C31.7198 82.7733 30.6312 82.7733 29.5427 82.8137C28.3735 82.8943 27.2446 82.9346 26.1157 82.9346ZM26.156 59.9134C25.9545 61.002 25.7529 62.0503 25.511 63.1388C25.39 63.7436 25.3094 64.308 25.1884 64.9128C25.0675 65.4772 24.9062 66.0014 24.7853 66.5255C24.5433 67.5334 24.3014 68.5413 24.0192 69.5493C23.8983 70.0734 23.737 70.5975 23.616 71.1216C23.5354 71.4039 23.4951 71.6861 23.4145 71.9683C23.4145 72.0489 23.3741 72.0893 23.3741 72.1699C25.4303 72.1699 27.4865 72.1699 29.5024 72.1296C31.6392 72.0893 33.8163 71.928 35.9531 71.8474C36.5176 71.8474 37.082 71.807 37.6868 71.807C37.6061 71.5651 37.5255 71.2829 37.4449 71.041C37.2433 70.275 37.0014 69.5493 36.7998 68.7832C36.4772 67.735 36.316 66.6464 36.1547 65.5579C35.9934 64.5499 35.8322 63.542 35.5903 62.5341C35.3484 61.4858 35.1065 60.4779 34.8242 59.4296C34.3808 59.3087 34.0582 58.9458 34.0582 58.462C34.0582 58.2201 34.1792 57.9782 34.3404 57.7766C34.1792 57.2525 34.0179 56.6881 33.8566 56.1639C33.776 55.922 33.8163 55.6398 33.9373 55.4382C33.9373 55.4382 33.9373 55.4382 33.8969 55.4382C33.3325 55.6398 32.7277 55.7608 32.123 55.8414C31.4376 55.922 30.7119 55.8817 30.0265 55.8817C29.2201 55.8817 28.3735 55.8011 27.5671 55.6398C27.2446 55.5592 26.9221 55.4785 26.6398 55.3576C26.6802 55.8011 26.6802 56.2043 26.6398 56.6477C26.5995 57.2928 26.4786 57.9379 26.3576 58.583C26.3173 59.0265 26.2367 59.47 26.156 59.9134ZM25.5513 80.7978C25.5916 80.8381 25.6319 80.8784 25.6319 80.9187C26.6398 80.9187 27.6478 80.9187 28.6557 80.8784C29.7039 80.8381 30.7522 80.7978 31.8005 80.7978C32.1633 80.7978 32.5262 80.7978 32.889 80.7978C32.8487 80.7978 32.8084 80.7575 32.7681 80.7575C32.2843 80.4752 32.123 79.8705 32.4052 79.3867C32.8084 78.7013 33.1309 77.9756 33.6147 77.3305C34.1389 76.6451 34.9049 76.0403 35.7919 76.2823C36.0338 76.3629 36.2757 76.4435 36.4773 76.5645C36.9207 76.2419 37.4046 75.9597 37.8884 75.6775C38.4931 75.3146 39.0576 74.9518 39.622 74.5889C39.9445 74.347 40.2267 74.0245 40.5493 73.7423C40.3477 73.7423 40.1058 73.7423 39.9042 73.7423C39.7833 73.8632 39.6623 73.9438 39.501 73.9842C39.1382 74.0648 38.8156 73.9842 38.5737 73.7826C37.848 73.7826 37.082 73.7826 36.3563 73.8229C34.1388 73.9035 31.9214 74.0648 29.6636 74.1051C27.4462 74.1454 25.2287 74.1454 23.0113 74.1454C22.7694 74.1454 22.5275 74.1454 22.2856 74.1454C22.3259 74.2261 22.4065 74.3067 22.4468 74.3873C22.7694 74.7905 23.1322 75.1937 23.4951 75.5565C23.858 75.9194 24.2208 76.2419 24.624 76.5241C24.9868 76.7661 25.3497 77.008 25.7125 77.2499C26.3173 77.1289 26.8817 76.8467 27.4462 76.6451C27.7687 76.5242 28.0913 76.5242 28.4138 76.6048C28.7767 76.6854 29.0992 77.0483 29.2605 77.3708C29.583 78.0159 29.583 78.7819 29.583 79.4673C29.583 80.0318 29.0992 80.4752 28.5751 80.4752C28.0106 80.4752 27.6075 80.0318 27.5671 79.4673C27.5671 79.2254 27.5671 78.9432 27.5268 78.7013C27.3252 78.7819 27.1236 78.8625 26.9221 78.9432C26.7205 79.0238 26.5189 79.1045 26.3173 79.1448C26.0754 79.1851 25.8335 79.2657 25.5916 79.2657C25.4303 79.2657 25.2287 79.2254 25.0675 79.1851C24.9465 79.1448 24.8256 79.1045 24.7449 79.0238C24.7046 78.9835 24.624 78.9432 24.5837 78.9029C24.3418 78.7416 24.0999 78.5803 23.8579 78.4191C23.5757 78.2175 23.2532 77.9756 22.971 77.774C22.4469 77.3305 21.9227 76.8467 21.4792 76.3226C20.8342 75.6372 20.31 74.8711 19.7859 74.1051C18.657 74.0648 17.5685 74.0648 16.4396 73.9842C14.2221 73.8632 12.045 73.7019 9.82755 73.7019C7.6101 73.7019 5.35233 73.6616 3.13488 73.7423C2.57044 73.7423 2.12695 73.2585 2.12695 72.7343C2.12695 72.1699 2.57044 71.7667 3.13488 71.7264C5.35233 71.6458 7.56978 71.6458 9.82755 71.6861C12.0047 71.6861 14.1415 71.8474 16.3186 71.9683C17.004 72.0086 17.6894 72.0086 18.3748 72.0489C17.6894 71.0007 17.0847 69.8315 17.0443 68.5817C17.004 67.7753 17.0847 67.0093 17.2056 66.2432C17.3266 65.5579 17.4878 64.8725 17.7297 64.2274C18.012 63.4614 18.3345 62.7357 18.778 62.0503C19.1811 61.4052 19.6246 60.8004 20.1084 60.236C20.7938 59.3893 21.5599 58.6233 22.4065 57.9379C23.1322 57.2928 23.858 56.7284 24.7046 56.2446C24.7046 56.1639 24.7046 56.0833 24.7046 56.0027C24.7046 55.5995 24.6643 55.1963 24.624 54.8335C24.624 54.6319 24.6643 54.4706 24.7449 54.3497C24.3821 54.0674 24.0595 53.7852 23.737 53.503C23.1726 52.9386 22.6484 52.3338 22.2049 51.6887C21.8018 51.1243 21.4792 50.5195 21.3583 49.8341C21.2777 49.431 21.197 48.9875 21.2373 48.544C21.2776 48.1408 21.318 47.7376 21.3986 47.3345C21.5599 46.6491 21.8018 46.004 22.1646 45.4799C23.0516 44.1494 24.2611 43.1011 25.5916 42.2545C26.8414 41.4481 28.2525 40.8031 29.7039 40.4402C30.47 40.2789 31.2763 40.1177 32.0424 40.1177C32.0827 40.1177 32.123 40.1177 32.1633 40.1177C32.5262 40.1177 32.889 40.1177 33.2519 40.1983C33.655 40.2386 34.0582 40.2789 34.4211 40.3999C34.8242 40.5209 35.2677 40.6821 35.6306 40.924C35.9128 41.1256 36.195 41.3272 36.4369 41.5691C36.6385 41.7707 36.8401 42.0126 37.0417 42.2545C37.203 42.4561 37.3239 42.6577 37.3239 42.8996C37.6061 43.0608 37.8884 43.1415 38.1706 43.3431C38.4125 43.5043 38.6544 43.6656 38.8157 43.8672C39.0172 44.0688 39.1785 44.2703 39.3398 44.4719C39.9445 45.3186 40.3477 46.3265 40.3477 47.3748C40.3477 47.9795 40.3074 48.5843 40.2268 49.1891C40.0252 50.4389 39.4607 51.5678 38.5737 52.4548C38.2109 52.8579 37.7674 53.1805 37.3642 53.5433C37.1626 53.7046 36.9611 53.8659 36.7191 54.0271C36.3966 54.269 36.0338 54.5109 35.7112 54.7528C35.5096 54.8738 35.2677 54.9947 35.0662 55.1157C35.429 55.1963 35.7112 55.4382 35.7919 55.8011C35.9531 56.4462 36.195 57.0912 36.3563 57.7363H36.3966C36.7998 57.817 37.1626 57.9379 37.4852 58.0992C38.1303 58.3814 38.735 58.7442 39.2995 59.1877C40.509 60.0747 41.7185 61.0423 42.7264 62.2115C43.694 63.3404 44.5407 64.6306 45.1051 66.0014C45.2664 66.4045 45.3874 66.8077 45.468 67.2512C45.5083 67.6544 45.5889 68.0172 45.5889 68.4204C45.5889 69.1058 45.5083 69.8315 45.2664 70.4766C45.1051 70.8797 44.9439 71.2829 44.7423 71.6861C44.702 71.7264 44.6617 71.7667 44.6617 71.8474C44.9842 71.8474 45.2664 71.8474 45.5889 71.8474C46.7178 71.8474 47.8064 71.807 48.9353 71.7264C50.0238 71.6458 51.1124 71.6054 52.201 71.4845C53.2089 71.4039 54.2572 71.2829 55.2651 71.162C55.4667 71.1216 55.6279 71.1216 55.8295 71.0813C55.9908 70.8797 56.2327 70.7991 56.4746 70.7991C56.7568 70.7991 57.039 70.92 57.2003 71.0813C57.4019 71.2829 57.4825 71.5248 57.4825 71.807C57.4825 72.0893 57.3616 72.2908 57.2003 72.5327C57.039 72.7343 56.8375 72.8553 56.5956 72.9359C56.4746 72.9762 56.394 72.9762 56.273 73.0166C56.1117 73.0569 55.9908 73.0569 55.8295 73.0972C53.6927 73.4197 51.4753 73.581 49.2981 73.7423C48.1289 73.8229 46.9597 73.8632 45.7905 73.9035C45.1051 73.9035 44.4601 73.9035 43.7747 73.9035C43.5731 73.9035 43.3715 73.9035 43.1699 73.9035C42.928 74.2261 42.6458 74.5486 42.3636 74.8712C41.6379 75.6775 40.7509 76.4032 39.8236 76.9676C39.0172 77.4918 38.1706 77.9353 37.4045 78.4997C37.2836 78.5803 37.203 78.661 37.082 78.7416C36.8804 78.8625 36.6788 78.8626 36.4369 78.9029C36.1547 78.9029 35.8322 78.7416 35.5903 78.6206C35.5096 78.5803 35.429 78.54 35.3484 78.4997C35.308 78.54 35.2274 78.6207 35.1871 78.661C34.7436 79.2657 34.4211 79.9511 34.0582 80.5962C33.9373 80.7978 33.776 80.9187 33.5744 80.9994C34.0179 80.9994 34.5017 80.9994 34.9452 80.9994C35.2274 80.9994 35.5096 80.9994 35.7919 81.0397C36.316 81.08 36.8401 81.08 37.2836 81.2816C37.6868 81.4429 38.0496 81.7654 38.1706 82.2089C38.2109 82.3298 38.2512 82.4508 38.2512 82.5717C38.3318 82.8136 38.4125 83.0959 38.4931 83.3378C38.6544 83.7006 38.856 84.0635 39.0979 84.4263C39.501 85.1521 40.0252 85.9584 39.8236 86.8454C39.7429 87.1679 39.4607 87.4905 39.1785 87.6517C38.9366 87.813 38.6544 87.8533 38.3722 87.8533C38.1706 87.8533 38.0093 87.8533 37.8077 87.8533C37.4449 87.8533 37.082 87.8533 36.7191 87.8533C35.9531 87.8533 35.2274 87.9339 34.5017 87.9339C33.776 87.9742 33.01 87.9742 32.2843 88.0146C30.0668 88.1355 27.8494 88.3371 25.6319 88.4984C24.5837 88.579 23.5354 88.579 22.4872 88.5387C21.963 88.5387 21.4792 88.5387 20.9551 88.5387C20.5923 88.5387 20.2697 88.5387 19.9069 88.4984C19.3827 88.4984 18.8989 88.4581 18.4151 88.2968C18.1732 88.1758 17.9716 88.0952 17.8104 87.8533C17.6491 87.6114 17.6491 87.3292 17.6894 87.0873C17.7297 86.8454 17.8507 86.6035 18.0119 86.4422C18.0926 86.4019 18.1732 86.3213 18.2135 86.2406C18.3345 86.16 18.4151 86.039 18.4958 85.9584C18.778 85.7165 19.0199 85.4746 19.3021 85.2327C19.7456 84.8295 20.2294 84.4263 20.6729 83.9828C21.1567 83.5797 21.6002 83.1362 22.084 82.6927C21.8421 82.4508 21.7211 82.0879 21.8018 81.7251C21.9227 81.201 22.5275 80.8381 23.0516 81.0397C23.1322 81.08 23.1726 81.08 23.2532 81.08C23.4548 81.08 23.6564 81.08 23.8579 81.08C23.8983 81.0397 23.9386 80.9994 23.9789 80.959C24.1805 80.7575 24.4627 80.6768 24.7046 80.6768C25.1078 80.5156 25.3497 80.6365 25.5513 80.7978ZM24.0595 50.7614C24.6643 51.5275 25.3497 52.1725 26.0754 52.7773C26.3979 53.0192 26.7608 53.2611 27.164 53.4224C27.6075 53.5836 28.0913 53.7046 28.5348 53.7852C29.0589 53.8659 29.5427 53.8659 30.0668 53.9062C30.7522 53.9062 31.3973 53.9465 32.0827 53.8659C32.6471 53.7852 33.1712 53.624 33.6954 53.4224C34.3001 53.1401 34.8242 52.8579 35.3484 52.4548C35.5499 52.2935 35.7919 52.1322 35.9934 51.9709C36.5176 51.5275 37.0417 51.1243 37.4852 50.6002C37.6868 50.3179 37.8884 49.9954 38.0496 49.6729C38.1706 49.3503 38.2512 48.9875 38.3318 48.6246C38.3722 48.423 38.3722 48.2214 38.3722 48.0199C38.3722 47.6167 38.4125 47.2538 38.3722 46.8507C38.3318 46.6491 38.2915 46.4878 38.2109 46.2862C38.0899 46.004 37.9287 45.7218 37.7271 45.4799C37.6061 45.3186 37.4852 45.1976 37.3239 45.0767C37.0417 44.8751 36.7192 44.7542 36.3966 44.5929C36.195 44.4719 35.9934 44.351 35.8322 44.1494C35.6306 43.9075 35.5096 43.6656 35.308 43.4237C35.2677 43.3431 35.1871 43.2221 35.1871 43.1415C35.0661 42.9802 34.9049 42.8592 34.7436 42.7383C34.5823 42.6173 34.4211 42.5367 34.2195 42.4158C33.8969 42.2948 33.5744 42.2142 33.2519 42.1739C32.4858 42.0932 31.7601 42.0932 30.9941 42.1739C30.1878 42.2948 29.3814 42.5367 28.6154 42.8189C27.5671 43.2624 26.5995 43.8269 25.6722 44.5123C25.0675 44.9961 24.503 45.5202 24.0192 46.1249C23.8176 46.4072 23.616 46.7297 23.4548 47.0522C23.3338 47.3748 23.2532 47.7376 23.1726 48.1005C23.1322 48.423 23.1322 48.7053 23.1322 49.0278C23.1726 49.2697 23.2532 49.5116 23.3338 49.7535C23.5757 50.076 23.7773 50.4389 24.0595 50.7614Z" fill="#A6A7A1" stroke="#A6A7A1"/>
</svg>
