<svg width="32" height="48" viewBox="0 0 32 48" fill="none" xmlns="http://www.w3.org/2000/svg">
<path d="M25.723 11.8985C25.4387 11.8985 25.1139 11.7767 24.9108 11.5736C24.7078 11.3706 24.5859 11.0863 24.5859 10.7614C24.5859 10.4366 24.7078 10.1929 24.9108 9.94925C25.2357 9.54316 25.5605 9.13708 25.8854 8.77159C26.1697 8.48733 26.454 8.20306 26.7788 7.9188C27.1037 7.63454 27.4286 7.35027 27.7941 7.10662C27.9565 6.98479 28.1189 6.86297 28.2814 6.74114C28.6875 6.45688 29.1748 6.29444 29.6215 6.09139C29.7027 6.05078 29.7839 6.05078 29.9057 6.05078C30.1088 6.05078 30.3524 6.13201 30.5149 6.21323C30.7585 6.37566 30.9616 6.61931 31.0428 6.90357C31.124 7.18784 31.0834 7.51272 30.921 7.79698C30.7585 8.08124 30.5149 8.20306 30.2306 8.32489C30.1088 8.3655 30.0276 8.40612 29.9057 8.44673C29.6215 8.56855 29.4184 8.73098 29.1748 8.89342C29.0935 8.93403 29.0529 9.01525 28.9717 9.05586C28.7687 9.2183 28.6062 9.38072 28.4438 9.50255C28.2408 9.7056 27.9971 9.86803 27.7941 10.1117C27.3474 10.5584 26.9819 11.0457 26.5758 11.5736C26.3727 11.7767 26.0072 11.8985 25.723 11.8985Z" fill="#A6A7A1"/>
<path d="M17.0754 6.25379C17.1972 6.53806 17.2784 6.82233 17.1972 7.1472C17.116 7.43146 16.9129 7.67512 16.6693 7.83756C16.4256 7.99999 16.1008 8.0406 15.7759 7.95938C15.5322 7.87816 15.2074 7.67512 15.0855 7.43147C14.9637 7.10659 14.7607 6.82232 14.6795 6.49745C14.5982 6.2538 14.5576 6.01015 14.5576 5.76649C14.5576 5.56345 14.5576 5.3604 14.5576 5.15736C14.5576 4.71066 14.5576 4.26395 14.5982 3.81725C14.6388 2.92385 14.7201 2.03046 14.8419 1.13706C14.8825 0.812189 14.9231 0.568534 15.1668 0.32488C15.3698 0.121835 15.6947 0 15.9789 0C16.2632 0 16.5881 0.121835 16.7911 0.32488C16.9942 0.527925 17.1566 0.852798 17.116 1.13706C16.9942 1.94924 16.9129 2.76141 16.8723 3.6142C16.8723 3.97969 16.8317 4.38578 16.8317 4.75127C16.8317 5.07614 16.8317 5.44162 16.8317 5.76649C16.8317 5.84771 16.8723 5.88832 16.913 5.96954C16.9536 6.05076 17.0348 6.13197 17.0754 6.25379Z" fill="#A6A7A1"/>
<path d="M12.0389 31.2284C12.851 30.8629 13.6632 30.4974 14.3942 30.0101C14.5566 29.8883 14.6784 29.7259 14.8003 29.604C14.8409 29.5228 14.8815 29.4416 14.9221 29.3604C14.9627 29.2792 14.9627 29.2386 14.9627 29.1574C14.9627 29.0761 14.9627 28.9543 14.9627 28.8731C14.9221 28.6294 14.8409 28.4264 14.7597 28.2233C14.6784 28.0609 14.5972 27.8985 14.4754 27.7766C14.4348 27.736 14.3536 27.6548 14.313 27.6142C14.2317 27.5736 14.1505 27.533 14.1099 27.4924C14.0287 27.533 13.9069 27.533 13.8257 27.5736C13.6226 27.6954 13.4196 27.8173 13.2165 27.9391C13.0135 28.1015 12.851 28.2639 12.648 28.4264C12.5262 28.5482 12.3637 28.67 12.2419 28.7919C12.1607 28.8731 12.0388 28.9543 11.9576 29.0355C11.8358 29.1573 11.6328 29.3198 11.4703 29.401C11.3485 29.4822 11.2267 29.5228 11.0642 29.5634C10.9018 29.6041 10.7394 29.604 10.5769 29.6447C10.2521 29.6853 9.84595 29.4416 9.64291 29.2386C9.43986 29.0761 9.27743 28.8325 9.15561 28.6294C8.99317 28.3858 8.79012 28.1421 8.62768 27.8985C8.50586 27.736 8.38403 27.6142 8.22159 27.4924C8.14037 27.4518 8.05917 27.4112 7.97795 27.3705C7.93734 27.3705 7.89672 27.3706 7.85611 27.3299C7.8155 27.3299 7.7749 27.3299 7.73429 27.3299C7.65307 27.3299 7.57185 27.3705 7.53124 27.3705C7.53124 27.3705 7.49063 27.3705 7.49063 27.4112C7.49063 27.4518 7.45002 27.533 7.45002 27.5736C7.40941 28.1827 7.49064 28.7513 7.53124 29.3604C7.65307 30.0508 7.73429 30.7411 7.97795 31.3909C8.05917 31.5533 8.14038 31.7157 8.2622 31.8375C8.38403 32 8.54647 32.1218 8.70891 32.2842C8.87134 32.4061 9.03377 32.5279 9.23682 32.6497C9.76474 32.3655 10.2927 32.1218 10.8206 31.8782C11.1861 31.5939 11.5922 31.4314 12.0389 31.2284ZM5.33836 30.335C5.17592 29.604 5.13531 28.8325 5.0947 28.0609C5.05409 27.2081 5.21653 26.2741 5.86627 25.665C6.19114 25.3807 6.63784 25.1371 7.08454 25.0558C7.3282 25.0152 7.57185 24.9746 7.8155 24.9746C8.01855 24.9746 8.2622 25.0152 8.46525 25.0558C8.7089 25.1371 8.99316 25.2589 9.23682 25.3807C9.48047 25.5431 9.72413 25.7056 9.88657 25.9086C10.1708 26.1929 10.3739 26.5178 10.6175 26.802C10.6581 26.8426 10.6988 26.9238 10.7394 26.9645C11.5109 26.2741 12.2825 25.5838 13.2571 25.2589C13.9475 25.0558 14.6784 25.0964 15.2876 25.4619C15.6125 25.665 15.9373 25.9086 16.2216 26.2335C16.6277 26.7614 16.9526 27.3705 17.115 28.0203C17.1962 28.467 17.2774 28.9137 17.2368 29.3604C17.1556 30.0101 16.9119 30.6193 16.4652 31.1472C15.9373 31.7969 15.1657 32.2436 14.4348 32.6497C13.7444 33.0152 12.9729 33.2995 12.2419 33.6243C12.2419 33.6243 12.2013 33.6243 12.2013 33.6649C11.5109 33.9492 10.8612 34.3147 10.2114 34.6396C10.0084 34.7208 9.80536 34.7614 9.60231 34.7614C9.23683 35.0051 8.74952 35.0457 8.38404 34.802C7.49064 34.2335 6.4754 33.5837 5.98809 32.5685C5.66322 31.8375 5.50079 31.1066 5.33836 30.335Z" fill="#A6A7A1"/>
<path d="M7.3688 43.7766C7.24697 44.0202 7.08454 44.3045 6.96271 44.5887C7.32819 44.8324 7.65306 44.9948 8.05915 45.1979C8.46524 45.3603 8.87133 45.4821 9.31803 45.5634C9.68351 45.604 10.049 45.604 10.4145 45.604C10.4551 45.5634 10.4551 45.5227 10.4957 45.4415C10.5769 45.1573 10.6581 44.873 10.7393 44.5887C10.78 44.4263 10.8206 44.2639 10.8612 44.1014C10.6581 44.1014 10.4551 44.1014 10.2926 44.1014C9.80534 44.1014 9.31802 44.0608 8.83072 44.0202C8.34341 43.939 7.85611 43.8984 7.3688 43.7766ZM7.4094 40.1218C7.16574 40.5278 6.9221 40.8933 6.71905 41.2994C7.3688 41.5025 8.01854 41.6243 8.66828 41.7055C9.1962 41.7461 9.68352 41.7867 10.2114 41.8273C10.4551 41.8273 10.7394 41.8273 11.0236 41.8273C11.2673 41.8273 11.5515 41.8273 11.7952 41.8273C11.8358 41.8273 11.8358 41.7867 11.8764 41.7867C12.1201 41.5837 12.3231 41.34 12.5261 41.0964C12.6074 40.9339 12.6886 40.8121 12.7698 40.6497C11.7952 40.6497 10.78 40.5684 9.80534 40.4872C9.23682 40.406 8.66828 40.3248 8.09976 40.2436C7.8561 40.203 7.61244 40.1624 7.4094 40.1218ZM6.80026 37.0761C6.75965 37.1979 6.71905 37.3603 6.71905 37.4822C6.80027 37.5228 6.84088 37.5634 6.9221 37.604C7.73428 37.9289 8.58706 38.0507 9.48046 38.2131C10.2114 38.2943 10.9018 38.3756 11.6328 38.4162C12.3231 38.4568 13.0541 38.4974 13.7444 38.4568L13.785 38.4162L13.8256 38.3756C13.4195 38.3756 13.0135 38.3756 12.6074 38.3756C11.3891 38.3349 10.1302 38.2943 8.95255 37.9695C8.42463 37.807 7.85611 37.604 7.3688 37.4009C7.16575 37.1979 7.00331 37.1167 6.80026 37.0761ZM3.34849 30.0507C3.59215 30.4162 3.87642 30.7817 4.12007 31.1878C4.60738 31.9187 5.05407 32.6903 5.58199 33.4213C5.86625 33.7461 6.15052 34.0304 6.47539 34.3146C6.84088 34.5583 7.16575 34.7613 7.57184 34.9238C8.54646 35.3299 9.52108 35.6954 10.5769 35.8984C11.2673 35.9796 11.9576 35.9796 12.6074 36.0202C13.3383 36.0202 14.0287 36.0608 14.7596 35.9796C15.45 35.8578 16.0997 35.5735 16.7089 35.3299C17.318 35.0456 17.8459 34.7613 18.3738 34.3553C18.7393 34.0304 19.1048 33.7055 19.3891 33.34C19.8358 32.7309 20.2825 32.0812 20.6886 31.3908C21.0947 30.7004 21.5007 29.9695 21.8662 29.1979C22.1505 28.4669 22.3129 27.6954 22.4754 26.9644C22.6378 26.3553 22.7596 25.7055 22.8408 25.0964C22.9221 24.2842 22.9627 23.5126 22.9627 22.7004C22.9627 21.9289 22.9627 21.1573 22.8815 20.3857C22.8408 20.1421 22.8002 19.939 22.719 19.6954C22.4754 19.1675 22.1911 18.6396 21.8256 18.1522C21.4601 17.7055 21.0134 17.2994 20.6073 16.8527C20.2419 16.4873 19.8764 16.1624 19.4703 15.8375C19.186 15.9187 18.8612 15.8781 18.6175 15.7157C18.2114 15.3908 17.7647 15.1066 17.3586 14.7817C17.1556 14.6192 16.9119 14.4568 16.6683 14.335C16.4652 14.2132 16.2622 14.1319 16.0591 14.0101C15.6937 13.8883 15.3282 13.7665 14.9627 13.6446C14.5566 13.5634 14.1911 13.4822 13.8256 13.401C13.2977 13.3604 12.8104 13.3198 12.2825 13.2792C11.5921 13.2385 10.9424 13.2385 10.252 13.2792C9.76472 13.3604 9.31802 13.5228 8.83072 13.6852C8.26219 13.9289 7.73427 14.2538 7.20635 14.6192C6.55661 15.1472 6.02869 15.7157 5.46017 16.3248C5.01347 16.8121 4.56676 17.2995 4.16067 17.7868C3.95763 18.071 3.75458 18.3147 3.59215 18.6395C3.3891 19.005 3.18606 19.3705 2.98301 19.7766C2.9424 19.8172 2.94241 19.8984 2.9018 19.939C2.77997 20.2233 2.65814 20.5482 2.57692 20.873C2.45509 21.2385 2.37387 21.5634 2.33326 21.8883C2.25205 22.8629 2.21144 23.8375 2.21144 24.7715C2.21144 25.2588 2.21144 25.7055 2.21144 26.1928C2.21144 26.6395 2.21144 27.1268 2.25205 27.5735C2.33327 27.9796 2.4551 28.3857 2.61753 28.7918C2.9018 29.2791 3.10484 29.6852 3.34849 30.0507ZM2.73936 16.1218C3.10484 15.6751 3.51094 15.2284 3.91703 14.8223C4.32312 14.3756 4.76981 13.8883 5.21651 13.4822C5.82565 12.9543 6.47539 12.4264 7.20635 12.0609C7.8561 11.736 8.54645 11.4111 9.23681 11.2487C9.88655 11.0863 10.5769 11.0457 11.2673 11.0457C11.5515 11.0457 11.8358 11.0457 12.1201 11.0863C13.3789 11.1269 14.6784 11.2487 15.8967 11.6142C16.6683 11.8578 17.4804 12.1421 18.1708 12.6294C18.5769 12.9137 18.983 13.1979 19.3891 13.5228C19.4703 13.4822 19.5921 13.4822 19.714 13.4822C20.0388 13.4822 20.2825 13.604 20.5261 13.8071C21.0134 14.2132 21.5414 14.6193 21.9881 15.0659C22.3129 15.3908 22.5972 15.7157 22.9221 16.0406C23.3282 16.4467 23.6936 16.8528 23.9779 17.3401C24.2216 17.7462 24.4652 18.1522 24.6683 18.5583C25.0337 19.2893 25.1962 20.1421 25.2368 20.9543C25.2774 21.401 25.2368 21.8883 25.2368 22.335C25.2368 23.269 25.1962 24.203 25.115 25.0964C24.9931 26.3553 24.7089 27.6142 24.384 28.8324C24.2216 29.4009 24.0591 29.9289 23.8561 30.4162C23.7342 30.6598 23.6124 30.9441 23.45 31.1878C23.2063 31.6751 22.9221 32.203 22.5972 32.6903C21.9475 33.7461 21.2977 34.8426 20.3637 35.6548C19.8764 36.1015 19.3485 36.5075 18.7799 36.8324C18.2114 37.1573 17.6429 37.4009 17.0338 37.6446C16.8713 37.6852 16.7495 37.7664 16.5871 37.8476C16.4246 38.2537 16.2622 38.6598 16.0591 39.0659C15.9779 39.2283 15.8561 39.3908 15.7749 39.5532C15.7749 39.6344 15.8155 39.7157 15.8155 39.7969C15.8155 40.1217 15.6937 40.3654 15.4906 40.6091C15.3688 40.7309 15.247 40.8527 15.1657 41.0151C15.0439 41.2994 14.9627 41.6243 14.8003 41.9085C14.5972 42.274 14.3535 42.5583 14.1099 42.8832C13.9475 43.0862 13.785 43.2486 13.6226 43.4111C13.6226 43.6547 13.582 43.8578 13.4602 44.0608C13.3789 44.2233 13.2977 44.4263 13.2165 44.5887C13.0947 44.873 13.0541 45.1573 12.9728 45.4415C12.9322 45.6852 12.851 45.8882 12.7698 46.1319C12.6074 46.5786 12.4043 47.0659 12.0794 47.3908C11.7952 47.675 11.4297 47.8781 11.0236 47.9187C10.6175 47.9593 10.2114 47.9999 9.80534 47.9999C9.39925 47.9999 8.99316 47.9593 8.58707 47.8375C7.8155 47.675 7.00331 47.3908 6.31296 46.9441C5.66322 46.5786 4.97286 46.0913 4.72921 45.3603C4.52616 44.7918 4.6886 44.2639 4.93225 43.7766C5.01347 43.5735 5.09468 43.4111 5.21651 43.208C4.60737 42.9238 4.16068 42.3959 4.20128 41.7461C4.20128 41.2994 4.44494 40.8527 4.64799 40.4466C4.85103 40.0811 5.09469 39.7157 5.29773 39.3096C5.1353 39.1877 5.01347 39.0659 4.89164 38.9035C4.72921 38.741 4.64798 38.5786 4.60737 38.4162C4.60737 38.3756 4.56676 38.2943 4.56676 38.2537C4.52615 38.0913 4.52616 37.9289 4.48555 37.7664C4.48555 37.7258 4.48555 37.6852 4.48555 37.6446C4.48555 37.4822 4.52616 37.3603 4.52616 37.1979C4.60738 36.7512 4.68859 36.3451 4.81042 35.8984C4.56677 35.6954 4.32312 35.4517 4.12007 35.2081C3.71398 34.6801 3.30788 34.1522 2.9424 33.5837C2.65814 33.137 2.33327 32.6497 2.04901 32.203C1.72414 31.7563 1.39926 31.3096 1.11499 30.8629C0.952556 30.6192 0.830729 30.335 0.708901 30.0507C0.505856 29.604 0.302816 29.1167 0.180988 28.6294C0.0185522 27.8578 0.0185547 27.0862 0.0185547 26.2741C0.0185547 25.0964 0.0185473 23.9593 0.0997654 22.7817C0.140374 22.1319 0.221598 21.4416 0.384034 20.7918C0.505861 20.2233 0.749513 19.6954 0.952558 19.1675C0.952558 19.1675 0.952561 19.1269 0.99317 19.0862V19.0456C1.19622 18.5583 1.43986 18.071 1.72413 17.6243C2.049 17.0152 2.37387 16.5279 2.73936 16.1218Z" fill="#A6A7A1"/>
<path d="M3.63225 6.90351C3.91652 7.39082 4.11956 7.91874 4.40382 8.40605C4.64748 8.56848 4.93174 8.73092 5.17539 8.85275C5.70331 9.17762 5.90635 9.86797 5.58148 10.4365C5.25661 10.9644 4.56626 11.1675 4.03834 10.8426C3.46982 10.4771 2.77946 10.1928 2.45459 9.5431C2.33276 9.34005 2.25154 9.13701 2.17032 8.97457C1.96728 8.52787 1.72363 8.12178 1.47998 7.71569C1.23632 7.26899 1.03327 6.82229 0.789617 6.37559C0.505354 5.80707 0.302313 5.19792 0.0586588 4.6294C-0.0631684 4.34513 0.0180448 3.97966 0.180481 3.736C0.342917 3.49235 0.586577 3.2893 0.87084 3.20808C0.952058 3.16747 1.07388 3.16748 1.1551 3.16748C1.35814 3.16748 1.56118 3.20809 1.72362 3.32991C2.00788 3.49235 2.12972 3.736 2.25155 4.02026C2.41398 4.42635 2.57641 4.79184 2.73885 5.19793C3.02311 5.80707 3.30738 6.37559 3.63225 6.90351Z" fill="#A6A7A1"/>
</svg>
