<svg width="171" height="71" viewBox="0 0 171 71" fill="none" xmlns="http://www.w3.org/2000/svg">
<path d="M49.6679 71H44.5762V41.458H49.6679V71Z" fill="#3E677D"/>
<path d="M79.2886 71H74.1767L61.0636 50.0406V71H55.9517V41.458H61.0636L74.2171 62.4985V41.458H79.2886V71Z" fill="#3E677D"/>
<path d="M102.161 64.1217H90.7651L88.3809 71H83.067L94.1798 41.458H98.7664L109.899 71H104.565L102.161 64.1217ZM92.1997 59.9826H100.726L96.463 47.7276L92.1997 59.9826Z" fill="#3E677D"/>
<path d="M129.721 64.1217H118.325L115.941 71H110.627L121.74 41.458H126.326L137.459 71H132.125L129.721 64.1217ZM119.76 59.9826H128.286L124.023 47.7276L119.76 59.9826Z" fill="#3E677D"/>
<path d="M147.441 41.458L155.927 64.1014L164.393 41.458H171V71H165.908V61.2609L166.413 48.2348L157.725 71H154.068L145.4 48.2551L145.905 61.2609V71H140.813V41.458H147.441Z" fill="#3E677D"/>
<path d="M32.5655 29.4178H0V0H32.5655V29.4178Z" fill="#994636"/>
<path d="M32.5655 71H0V41.5822H32.5655V71Z" fill="#C38E48"/>
<path d="M77.1417 29.4178H44.5762V0H77.1417V29.4178Z" fill="#A6A7A1"/>
<path d="M1.05327 36.0276V38.272H0V32.2317H2.31887C2.99607 32.2317 3.53311 32.4073 3.93 32.7585C4.32966 33.1098 4.52949 33.5744 4.52949 34.1525C4.52949 34.7443 4.33382 35.2048 3.94249 35.5339C3.55393 35.8631 3.00856 36.0276 2.30638 36.0276H1.05327ZM1.05327 35.1855H2.31887C2.69355 35.1855 2.97942 35.0983 3.17647 34.9241C3.37353 34.7471 3.47206 34.4926 3.47206 34.1607C3.47206 33.8344 3.37214 33.5744 3.17231 33.3808C2.97248 33.1844 2.69771 33.0835 2.34801 33.078H1.05327V35.1855Z" fill="#3E677D"/>
<path d="M10.6651 35.9446H9.49112V38.272H8.43784V32.2317H10.5694C11.2688 32.2317 11.8086 32.3879 12.1888 32.7004C12.5691 33.013 12.7592 33.4652 12.7592 34.057C12.7592 34.4608 12.6607 34.7996 12.4636 35.0734C12.2693 35.3445 11.9973 35.5533 11.6476 35.6999L13.009 38.2181V38.272H11.8808L10.6651 35.9446ZM9.49112 35.1025H10.5735C10.9288 35.1025 11.2063 35.014 11.4062 34.837C11.606 34.6572 11.7059 34.4124 11.7059 34.1027C11.7059 33.7791 11.6129 33.5288 11.427 33.3518C11.2438 33.1748 10.969 33.0835 10.6027 33.078H9.49112V35.1025Z" fill="#3E677D"/>
<path d="M21.58 35.4095C21.58 36.0013 21.4773 36.5213 21.272 36.9693C21.0666 37.4146 20.7724 37.7576 20.3894 37.9982C20.0091 38.236 19.5706 38.355 19.0738 38.355C18.5826 38.355 18.1441 38.236 17.7583 37.9982C17.3753 37.7576 17.0783 37.416 16.8674 36.9735C16.6592 36.531 16.5537 36.0207 16.551 35.4427V35.1025C16.551 34.5134 16.655 33.9934 16.8632 33.5426C17.0741 33.0918 17.3697 32.7475 17.7499 32.5096C18.133 32.269 18.5715 32.1487 19.0655 32.1487C19.5595 32.1487 19.9967 32.2676 20.3769 32.5055C20.7599 32.7405 21.0555 33.0807 21.2636 33.526C21.4718 33.9685 21.5773 34.4843 21.58 35.0734V35.4095ZM20.5268 35.0942C20.5268 34.4249 20.3991 33.9118 20.1438 33.5551C19.8912 33.1983 19.5318 33.0199 19.0655 33.0199C18.6103 33.0199 18.2537 33.1983 17.9956 33.5551C17.7402 33.9091 17.6098 34.411 17.6042 35.061V35.4095C17.6042 36.0732 17.7333 36.5863 17.9914 36.9486C18.2523 37.3109 18.6131 37.4921 19.0738 37.4921C19.5401 37.4921 19.8981 37.3151 20.1479 36.961C20.4005 36.607 20.5268 36.0898 20.5268 35.4095V35.0942Z" fill="#3E677D"/>
<path d="M29.1062 35.7123H26.6666V38.272H25.6133V32.2317H29.4642V33.078H26.6666V34.8743H29.1062V35.7123Z" fill="#3E677D"/>
<path d="M36.8279 35.5754H34.3384V37.434H37.2484V38.272H33.2851V32.2317H37.2193V33.078H34.3384V34.7457H36.8279V35.5754Z" fill="#3E677D"/>
<path d="M44.2583 36.7163C44.2583 36.4508 44.1639 36.2461 43.9752 36.1023C43.7893 35.9585 43.452 35.8133 42.9636 35.6667C42.4751 35.5201 42.0865 35.3569 41.7979 35.1772C41.2456 34.8314 40.9694 34.3806 40.9694 33.8247C40.9694 33.3379 41.1679 32.9369 41.5648 32.6216C41.9644 32.3063 42.482 32.1487 43.1176 32.1487C43.5395 32.1487 43.9155 32.2261 44.2458 32.381C44.5761 32.5359 44.8356 32.7571 45.0243 33.0448C45.2131 33.3296 45.3074 33.6463 45.3074 33.9948H44.2583C44.2583 33.6795 44.1584 33.4334 43.9586 33.2564C43.7615 33.0766 43.4784 32.9867 43.1093 32.9867C42.7651 32.9867 42.4973 33.06 42.3058 33.2066C42.1171 33.3532 42.0227 33.5578 42.0227 33.8206C42.0227 34.0418 42.1254 34.2271 42.3308 34.3765C42.5362 34.5231 42.8748 34.6669 43.3466 34.8079C43.8184 34.9462 44.1972 35.1052 44.4831 35.285C44.769 35.462 44.9785 35.6667 45.1117 35.899C45.245 36.1286 45.3116 36.3982 45.3116 36.708C45.3116 37.2113 45.1173 37.6124 44.7287 37.9111C44.343 38.207 43.8184 38.355 43.1551 38.355C42.7166 38.355 42.3127 38.2748 41.9436 38.1144C41.5772 37.9512 41.2914 37.7272 41.086 37.4423C40.8834 37.1574 40.7821 36.8255 40.7821 36.4466H41.8354C41.8354 36.7896 41.9492 37.0551 42.1767 37.2432C42.4043 37.4312 42.7304 37.5253 43.1551 37.5253C43.5214 37.5253 43.7962 37.452 43.9794 37.3054C44.1653 37.156 44.2583 36.9597 44.2583 36.7163Z" fill="#3E677D"/>
<path d="M52.3881 36.7163C52.3881 36.4508 52.2937 36.2461 52.105 36.1023C51.919 35.9585 51.5818 35.8133 51.0933 35.6667C50.6049 35.5201 50.2163 35.3569 49.9277 35.1772C49.3754 34.8314 49.0992 34.3806 49.0992 33.8247C49.0992 33.3379 49.2976 32.9369 49.6945 32.6216C50.0942 32.3063 50.6118 32.1487 51.2474 32.1487C51.6692 32.1487 52.0453 32.2261 52.3756 32.381C52.7059 32.5359 52.9654 32.7571 53.1541 33.0448C53.3428 33.3296 53.4372 33.6463 53.4372 33.9948H52.3881C52.3881 33.6795 52.2882 33.4334 52.0883 33.2564C51.8913 33.0766 51.6082 32.9867 51.2391 32.9867C50.8949 32.9867 50.6271 33.06 50.4356 33.2066C50.2468 33.3532 50.1525 33.5578 50.1525 33.8206C50.1525 34.0418 50.2552 34.2271 50.4605 34.3765C50.6659 34.5231 51.0045 34.6669 51.4764 34.8079C51.9482 34.9462 52.327 35.1052 52.6129 35.285C52.8988 35.462 53.1083 35.6667 53.2415 35.899C53.3747 36.1286 53.4413 36.3982 53.4413 36.708C53.4413 37.2113 53.2471 37.6124 52.8585 37.9111C52.4727 38.207 51.9482 38.355 51.2848 38.355C50.8463 38.355 50.4425 38.2748 50.0734 38.1144C49.707 37.9512 49.4212 37.7272 49.2158 37.4423C49.0132 37.1574 48.9119 36.8255 48.9119 36.4466H49.9651C49.9651 36.7896 50.0789 37.0551 50.3065 37.2432C50.5341 37.4312 50.8602 37.5253 51.2848 37.5253C51.6512 37.5253 51.926 37.452 52.1091 37.3054C52.2951 37.156 52.3881 36.9597 52.3881 36.7163Z" fill="#3E677D"/>
<path d="M58.4613 38.272H57.4121V32.2317H58.4613V38.272Z" fill="#3E677D"/>
<path d="M67.5777 35.4095C67.5777 36.0013 67.475 36.5213 67.2696 36.9693C67.0642 37.4146 66.7701 37.7576 66.387 37.9982C66.0068 38.236 65.5683 38.355 65.0715 38.355C64.5802 38.355 64.1417 38.236 63.7559 37.9982C63.3729 37.7576 63.076 37.416 62.865 36.9735C62.6569 36.531 62.5514 36.0207 62.5486 35.4427V35.1025C62.5486 34.5134 62.6527 33.9934 62.8609 33.5426C63.0718 33.0918 63.3674 32.7475 63.7476 32.5096C64.1306 32.269 64.5691 32.1487 65.0632 32.1487C65.5572 32.1487 65.9943 32.2676 66.3745 32.5055C66.7576 32.7405 67.0531 33.0807 67.2613 33.526C67.4695 33.9685 67.5749 34.4843 67.5777 35.0734V35.4095ZM66.5244 35.0942C66.5244 34.4249 66.3968 33.9118 66.1414 33.5551C65.8889 33.1983 65.5294 33.0199 65.0632 33.0199C64.608 33.0199 64.2514 33.1983 63.9932 33.5551C63.7379 33.9091 63.6075 34.411 63.6019 35.061V35.4095C63.6019 36.0732 63.731 36.5863 63.9891 36.9486C64.25 37.3109 64.6108 37.4921 65.0715 37.4921C65.5378 37.4921 65.8958 37.3151 66.1456 36.961C66.3981 36.607 66.5244 36.0898 66.5244 35.4095V35.0942Z" fill="#3E677D"/>
<path d="M76.4194 38.272H75.3661L72.6642 33.9865V38.272H71.6109V32.2317H72.6642L75.3744 36.5337V32.2317H76.4194V38.272Z" fill="#3E677D"/>
<path d="M84.1162 36.8656H81.7682L81.2769 38.272H80.182L82.4717 32.2317H83.4168L85.7107 38.272H84.6116L84.1162 36.8656ZM82.0638 36.0193H83.8206L82.9422 33.5136L82.0638 36.0193Z" fill="#3E677D"/>
<path d="M90.4391 37.434H93.191V38.272H89.3859V32.2317H90.4391V37.434Z" fill="#3E677D"/>
<path d="M103.456 32.2317L105.204 36.8615L106.948 32.2317H108.31V38.272H107.261V36.2807L107.365 33.6173L105.575 38.272H104.821L103.035 33.6214L103.139 36.2807V38.272H102.09V32.2317H103.456Z" fill="#3E677D"/>
<path d="M116.011 36.8656H113.663L113.172 38.272H112.077L114.366 32.2317H115.311L117.605 38.272H116.506L116.011 36.8656ZM113.958 36.0193H115.715L114.837 33.5136L113.958 36.0193Z" fill="#3E677D"/>
<path d="M125.161 33.078H123.27V38.272H122.226V33.078H120.352V32.2317H125.161V33.078Z" fill="#3E677D"/>
<path d="M132.487 35.5754H129.997V37.434H132.907V38.272H128.944V32.2317H132.878V33.078H129.997V34.7457H132.487V35.5754Z" fill="#3E677D"/>
<path d="M138.976 35.9446H137.802V38.272H136.749V32.2317H138.881C139.58 32.2317 140.12 32.3879 140.5 32.7004C140.88 33.013 141.07 33.4652 141.07 34.057C141.07 34.4608 140.972 34.7996 140.775 35.0734C140.581 35.3445 140.309 35.5533 139.959 35.6999L141.32 38.2181V38.272H140.192L138.976 35.9446ZM137.802 35.1025H138.885C139.24 35.1025 139.518 35.014 139.717 34.837C139.917 34.6572 140.017 34.4124 140.017 34.1027C140.017 33.7791 139.924 33.5288 139.738 33.3518C139.555 33.1748 139.28 33.0835 138.914 33.078H137.802V35.1025Z" fill="#3E677D"/>
<path d="M146.165 38.272H145.116V32.2317H146.165V38.272Z" fill="#3E677D"/>
<path d="M153.912 36.8656H151.564L151.073 38.272H149.978L152.268 32.2317H153.213L155.506 38.272H154.407L153.912 36.8656ZM151.86 36.0193H153.616L152.738 33.5136L151.86 36.0193Z" fill="#3E677D"/>
<path d="M160.235 37.434H162.987V38.272H159.182V32.2317H160.235V37.434Z" fill="#3E677D"/>
<path d="M169.947 36.7163C169.947 36.4508 169.852 36.2461 169.664 36.1023C169.478 35.9585 169.14 35.8133 168.652 35.6667C168.164 35.5201 167.775 35.3569 167.486 35.1772C166.934 34.8314 166.658 34.3806 166.658 33.8247C166.658 33.3379 166.856 32.9369 167.253 32.6216C167.653 32.3063 168.17 32.1487 168.806 32.1487C169.228 32.1487 169.604 32.2261 169.934 32.381C170.265 32.5359 170.524 32.7571 170.713 33.0448C170.901 33.3296 170.996 33.6463 170.996 33.9948H169.947C169.947 33.6795 169.847 33.4334 169.647 33.2564C169.45 33.0766 169.167 32.9867 168.798 32.9867C168.454 32.9867 168.186 33.06 167.994 33.2066C167.805 33.3532 167.711 33.5578 167.711 33.8206C167.711 34.0418 167.814 34.2271 168.019 34.3765C168.225 34.5231 168.563 34.6669 169.035 34.8079C169.507 34.9462 169.886 35.1052 170.172 35.285C170.457 35.462 170.667 35.6667 170.8 35.899C170.933 36.1286 171 36.3982 171 36.708C171 37.2113 170.806 37.6124 170.417 37.9111C170.031 38.207 169.507 38.355 168.843 38.355C168.405 38.355 168.001 38.2748 167.632 38.1144C167.266 37.9512 166.98 37.7272 166.774 37.4423C166.572 37.1574 166.471 36.8255 166.471 36.4466H167.524C167.524 36.7896 167.638 37.0551 167.865 37.2432C168.093 37.4312 168.419 37.5253 168.843 37.5253C169.21 37.5253 169.485 37.452 169.668 37.3054C169.854 37.156 169.947 36.9597 169.947 36.7163Z" fill="#3E677D"/>
</svg>
