<svg width="0" height="0" class="hidden">
  <symbol fill="none" xmlns="http://www.w3.org/2000/svg" viewBox="0 0 25 25" id="ic_accordion_arrow">
    <path d="M0.249798 6.71312L1.50221 5.46079C1.6691 5.29356 1.86134 5.21021 2.07867 5.21021C2.29548 5.21021 2.48764 5.29356 2.65452 5.46079L12.4999 15.3056L22.3448 5.46106C22.5117 5.29382 22.7039 5.21047 22.921 5.21047C23.1381 5.21047 23.3303 5.29382 23.4972 5.46106L24.7494 6.71347C24.9166 6.88036 25 7.07251 25 7.28967C25 7.50665 24.9164 7.69881 24.7494 7.86569L13.0761 19.5393C12.9092 19.7063 12.7169 19.7897 12.4999 19.7897C12.2828 19.7897 12.0909 19.7063 11.9241 19.5393L0.249798 7.86569C0.0829144 7.69872 0 7.50657 0 7.28967C0 7.07251 0.0829144 6.88036 0.249798 6.71312Z" fill="currentColor"></path>
  </symbol>
  <symbol fill="none" xmlns="http://www.w3.org/2000/svg" viewBox="0 0 10 17" id="ic_arrow_down">
    <path fill-rule="evenodd" clip-rule="evenodd" d="M9.80113 12.3517L5.48011 16.7955C5.21495 17.0682 4.78505 17.0682 4.51989 16.7955L0.198869 12.3517C-0.0662904 12.079 -0.0662904 11.6369 0.198869 11.3642C0.464029 11.0915 0.893936 11.0915 1.1591 11.3642L4.32102 14.6159L4.32102 0.698276C4.32102 0.312628 4.62501 -2.34948e-07 5 -2.18557e-07C5.37499 -2.02166e-07 5.67898 0.312628 5.67898 0.698276L5.67898 14.6159L8.8409 11.3642C9.10606 11.0915 9.53597 11.0915 9.80113 11.3642C10.0663 11.6369 10.0663 12.079 9.80113 12.3517Z" fill="currentColor"></path>
  </symbol>
  <symbol fill="none" xmlns="http://www.w3.org/2000/svg" viewBox="0 0 21 12" id="ic_arrow_up">
    <path fill-rule="evenodd" clip-rule="evenodd" d="M10.775 0.0262428C10.4128 -0.017404 10.0348 0.099772 9.75684 0.377773L1.06183 9.07278C0.581278 9.55333 0.581278 10.3325 1.06183 10.813C1.54238 11.2936 2.32151 11.2936 2.80207 10.813L10.6356 2.97946L18.471 10.8148C18.9515 11.2954 19.7307 11.2954 20.2112 10.8148C20.6918 10.3343 20.6918 9.55513 20.2112 9.07458L11.5166 0.379969C11.3091 0.172424 11.0458 0.0545154 10.775 0.0262428Z" fill="currentColor"></path>
  </symbol>
  <symbol fill="none" xmlns="http://www.w3.org/2000/svg" viewBox="0 0 40 19" id="ic_callback">
    <mask id="path-1-inside-1_106_1615" fill="white">
      <rect x="13" width="14" height="19" rx="1"></rect>
    </mask>
    <rect x="13" width="14" height="19" rx="1" stroke="currentColor" stroke-width="4" mask="url(#path-1-inside-1_106_1615)"></rect>
    <rect x="18.9824" y="13" width="2" height="2" fill="currentColor"></rect>
    <path fill-rule="evenodd" clip-rule="evenodd" d="M7.18054 14.7738C6.80183 15.0775 6.25297 15.0612 5.93072 14.6981C5.83227 14.5872 5.73609 14.4732 5.6423 14.3563C2.73246 10.7283 3.14557 5.48916 6.44802 2.21623C6.84031 1.82746 7.4744 1.89997 7.81996 2.33081V2.33081C8.1655 2.76163 8.09002 3.38697 7.70876 3.78652C5.23761 6.37627 5.0053 10.3655 7.20247 13.1049C7.22597 13.1342 7.24967 13.1633 7.27357 13.1921C7.66548 13.6648 7.65951 14.3896 7.18054 14.7738V14.7738ZM10.1906 12.3596C9.8348 12.6449 9.31644 12.6249 9.03109 12.2691V12.2691C7.34206 10.1632 7.22047 7.29737 8.50011 5.0428C8.81121 4.49467 9.56196 4.50272 9.9563 4.99439L10.0099 5.06116C10.2887 5.40883 10.2931 5.89479 10.0987 6.29581C9.35701 7.82535 9.50941 9.66893 10.5913 11.0178V11.0178C10.8515 11.3422 10.8471 11.833 10.5226 12.0933L10.1906 12.3596Z" fill="currentColor"></path>
    <path fill-rule="evenodd" clip-rule="evenodd" d="M32.4623 14.7738C32.841 15.0775 33.3898 15.0612 33.7121 14.6981C33.8105 14.5872 33.9067 14.4732 34.0005 14.3563C36.9103 10.7283 36.4972 5.48916 33.1948 2.21623C32.8025 1.82746 32.1684 1.89997 31.8228 2.33081V2.33081C31.4773 2.76163 31.5528 3.38697 31.934 3.78652C34.4052 6.37627 34.6375 10.3655 32.4403 13.1049C32.4168 13.1342 32.3931 13.1633 32.3692 13.1921C31.9773 13.6648 31.9833 14.3896 32.4623 14.7738V14.7738ZM29.4522 12.3596C29.808 12.6449 30.3264 12.6249 30.6117 12.2691V12.2691C32.3007 10.1632 32.4223 7.29737 31.1427 5.0428C30.8316 4.49467 30.0808 4.50272 29.6865 4.99439L29.6329 5.06116C29.3541 5.40883 29.3497 5.89479 29.5441 6.29581C30.2858 7.82535 30.1334 9.66893 29.0515 11.0178V11.0178C28.7913 11.3422 28.7957 11.833 29.1202 12.0933L29.4522 12.3596Z" fill="currentColor"></path>
  </symbol>
  <symbol fill="none" xmlns="http://www.w3.org/2000/svg" viewBox="0 0 14 14" id="ic_close">
    <path d="M13.295 2.115C13.6844 1.72564 13.6844 1.09436 13.295 0.705C12.9056 0.315639 12.2744 0.315639 11.885 0.705L7 5.59L2.115 0.705C1.72564 0.315639 1.09436 0.315639 0.705 0.705C0.315639 1.09436 0.315639 1.72564 0.705 2.115L5.59 7L0.705 11.885C0.315639 12.2744 0.315639 12.9056 0.705 13.295C1.09436 13.6844 1.72564 13.6844 2.115 13.295L7 8.41L11.885 13.295C12.2744 13.6844 12.9056 13.6844 13.295 13.295C13.6844 12.9056 13.6844 12.2744 13.295 11.885L8.41 7L13.295 2.115Z" fill="currentColor"></path>
  </symbol>
  <symbol fill="none" xmlns="http://www.w3.org/2000/svg" viewBox="0 0 24 24" id="ic_email">
    <path d="M22 6C22 4.9 21.1 4 20 4H4C2.9 4 2 4.9 2 6V18C2 19.1 2.9 20 4 20H20C21.1 20 22 19.1 22 18V6ZM20 6L12 11L4 6H20ZM20 18H4V8L12 13L20 8V18Z" fill="currentColor"></path>
  </symbol>
  <symbol fill="none" xmlns="http://www.w3.org/2000/svg" viewBox="0 0 12 22" id="ic_facebook">
    <path d="M0.705827 12.7756H3.07552V21.3116C3.07552 21.6911 3.39079 21.9991 3.78135 21.9991L7.55235 22C7.94291 22 8.25818 21.6911 8.25818 21.3125V12.7765H10.5046C10.8603 12.7765 11.1605 12.518 11.2048 12.1743L11.6734 8.50758C11.7261 8.09875 11.3977 7.73483 10.9733 7.73483H8.25818C8.36452 5.46975 7.8488 4.79967 9.36115 4.79967C10.3851 4.6805 12 5.18558 12 4.11217V0.83325C12 0.4895 11.7393 0.198917 11.3902 0.152167C11.0947 0.11275 9.92675 0 8.47839 0C1.88126 0 3.23928 7.12433 3.07647 7.73392H0.705827C0.316211 7.73392 0 8.04192 0 8.42142V12.0881C0 12.4676 0.316211 12.7756 0.705827 12.7756ZM1.41165 9.10983H3.78135C4.17097 9.10983 4.48718 8.80183 4.48718 8.42233V5.53392C4.48718 2.89117 5.94118 1.37592 8.47745 1.37592C9.30374 1.37592 10.0642 1.41533 10.5874 1.45567V3.42558C10.2091 3.6135 6.84558 2.61525 6.84558 5.89783V8.42325C6.84558 8.80275 7.16179 9.11075 7.55141 9.11075H10.1733L9.87969 11.4024H7.55141C7.16179 11.4024 6.84558 11.7104 6.84558 12.0899V20.625H4.48812V12.089C4.48812 11.7095 4.17191 11.4015 3.78229 11.4015H1.41165V9.10983Z" fill="currentColor"></path>
  </symbol>
  <symbol fill="none" xmlns="http://www.w3.org/2000/svg" viewBox="0 0 37 32" id="ic_feedback">
    <path d="M19.3267 2.44444C19.4 3.53222 19.5833 4.59556 19.8767 5.61L18.41 7.07667C17.9089 5.61 17.5911 4.05778 17.4811 2.44444H19.3267ZM31.3778 17.1356C32.4167 17.4289 33.48 17.6122 34.5556 17.6856V19.5067C32.9422 19.3967 31.39 19.0789 29.9111 18.59L31.3778 17.1356ZM20.5 0H16.2222C15.55 0 15 0.55 15 1.22222C15 12.6989 24.3011 22 35.7778 22C36.45 22 37 21.45 37 20.7778V16.5122C37 15.84 36.45 15.29 35.7778 15.29C34.2622 15.29 32.7833 15.0456 31.4144 14.5933C31.2922 14.5444 31.1578 14.5322 31.0356 14.5322C30.7178 14.5322 30.4122 14.6544 30.1678 14.8867L27.4789 17.5756C24.02 15.8033 21.1844 12.98 19.4244 9.52111L22.1133 6.83222C22.4556 6.49 22.5533 6.01333 22.4189 5.58556C21.9667 4.21667 21.7222 2.75 21.7222 1.22222C21.7222 0.55 21.1722 0 20.5 0Z" fill="currentColor"></path>
    <path fill-rule="evenodd" clip-rule="evenodd" d="M6.7586 26.1854L8.94065 28.4208L11.1227 26.1854H18.5294V20.2878C16.4064 18.4934 14.7153 16.1787 13.6429 13.5309H2.47059V26.1854H6.7586ZM15.3907 11H1.23529C0.55306 11 0 11.5666 0 12.2655V27.4509C0 28.1498 0.55306 28.7163 1.23529 28.7163H5.73525L8.94065 32L12.146 28.7163H19.7647C20.4469 28.7163 21 28.1498 21 27.4509V19.0367C18.3283 17.1146 16.3186 14.2924 15.3907 11Z" fill="currentColor"></path>
  </symbol>
  <symbol fill="none" xmlns="http://www.w3.org/2000/svg" viewBox="0 0 21 21" id="ic_instagram">
    <path d="M20.9426 6.17406C20.8934 5.05825 20.7129 4.29114 20.4544 3.62643C20.1878 2.92085 19.7776 2.28915 19.2401 1.76402C18.7149 1.23071 18.0791 0.816306 17.3817 0.553819C16.7131 0.295338 15.95 0.114898 14.8342 0.0657019C13.7101 0.0123391 13.3532 0 10.502 0C7.65091 0 7.29403 0.0123391 6.17406 0.0615355C5.05824 0.110732 4.29114 0.291332 3.62658 0.549653C2.92085 0.816306 2.28915 1.22654 1.76402 1.76402C1.23071 2.28915 0.816466 2.92502 0.553819 3.62242C0.295338 4.29114 0.114898 5.05408 0.0657019 6.16989C0.0123391 7.29403 0 7.65091 0 10.5021C0 13.3532 0.0123391 13.7101 0.0615354 14.83C0.110732 15.9459 0.291332 16.713 0.549813 17.3777C0.816466 18.0833 1.23071 18.715 1.76402 19.2401C2.28915 19.7734 2.92502 20.1878 3.62242 20.4503C4.29114 20.7088 5.05408 20.8892 6.17005 20.9384C7.28987 20.9878 7.6469 20.9999 10.498 20.9999C13.3492 20.9999 13.7061 20.9878 14.826 20.9384C15.9418 20.8892 16.709 20.7088 17.3735 20.4503C18.7848 19.9046 19.9006 18.7888 20.4463 17.3777C20.7046 16.709 20.8852 15.9459 20.9344 14.83C20.9836 13.7101 20.9959 13.3532 20.9959 10.5021C20.9959 7.65091 20.9918 7.29403 20.9426 6.17406ZM19.0515 14.748C19.0063 15.7736 18.834 16.3274 18.6904 16.6966C18.3376 17.6115 17.6115 18.3376 16.6966 18.6904C16.3274 18.834 15.7696 19.0063 14.748 19.0513C13.6404 19.1007 13.3082 19.1128 10.5062 19.1128C7.70427 19.1128 7.36791 19.1007 6.26428 19.0513C5.23868 19.0063 4.68487 18.834 4.31565 18.6904C3.86039 18.5222 3.44598 18.2555 3.10962 17.9068C2.76092 17.5663 2.49427 17.1561 2.32601 16.7008C2.18242 16.3316 2.01016 15.7736 1.96513 14.7522C1.91577 13.6445 1.90359 13.3122 1.90359 10.5102C1.90359 7.70828 1.91577 7.37191 1.96513 6.26844C2.01016 5.24285 2.18242 4.68903 2.32601 4.31982C2.49427 3.86439 2.76092 3.45015 3.11379 3.11363C3.45416 2.76493 3.86439 2.49828 4.31982 2.33017C4.68903 2.18659 5.24702 2.01432 6.26844 1.96913C7.37608 1.91994 7.70844 1.9076 10.5102 1.9076C13.3163 1.9076 13.6485 1.91994 14.7522 1.96913C15.7778 2.01432 16.3316 2.18659 16.7008 2.33017C17.156 2.49828 17.5704 2.76493 17.9068 3.11363C18.2555 3.45416 18.5222 3.86439 18.6904 4.31982C18.834 4.68903 19.0063 5.24686 19.0515 6.26844C19.1007 7.37608 19.113 7.70828 19.113 10.5102C19.113 13.3122 19.1007 13.6404 19.0515 14.748Z" fill="currentColor"></path>
    <path d="M10.5021 5.10742C7.52387 5.10742 5.10748 7.52365 5.10748 10.502C5.10748 13.4804 7.52387 15.8966 10.5021 15.8966C13.4805 15.8966 15.8967 13.4804 15.8967 10.502C15.8967 7.52365 13.4805 5.10742 10.5021 5.10742ZM10.5021 14.0014C8.56997 14.0014 7.00274 12.4343 7.00274 10.502C7.00274 8.56975 8.56997 7.00268 10.5021 7.00268C12.4344 7.00268 14.0014 8.56975 14.0014 10.502C14.0014 12.4343 12.4344 14.0014 10.5021 14.0014Z" fill="currentColor"></path>
    <path d="M17.3695 4.89416C17.3695 5.58964 16.8056 6.15355 16.11 6.15355C15.4145 6.15355 14.8506 5.58964 14.8506 4.89416C14.8506 4.19852 15.4145 3.63477 16.11 3.63477C16.8056 3.63477 17.3695 4.19852 17.3695 4.89416Z" fill="currentColor"></path>
  </symbol>
  <symbol fill="none" xmlns="http://www.w3.org/2000/svg" viewBox="0 0 16 15" id="ic_menu">
    <rect width="16" height="1.875" fill="currentColor"></rect>
    <rect y="6.5625" width="16" height="1.875" fill="currentColor"></rect>
    <rect y="13.125" width="16" height="1.875" fill="currentColor"></rect>
  </symbol>
  <symbol fill="none" xmlns="http://www.w3.org/2000/svg" viewBox="0 0 24 24" id="ic_notice">
    <circle cx="12" cy="12" r="12" fill="currentColor"></circle>
    <circle cx="12" cy="12" r="9.5" fill="currentColor" stroke="white"></circle>
    <rect x="11" y="6" width="2" height="2" fill="white"></rect>
    <rect x="10" y="10" width="4" height="2" fill="white"></rect>
    <rect x="10" y="15" width="4" height="2" fill="white"></rect>
    <rect x="11" y="10" width="2" height="6" fill="white"></rect>
  </symbol>
  <symbol fill="none" xmlns="http://www.w3.org/2000/svg" viewBox="0 0 11 18" id="ic_odnokl">
    <path d="M4.51019 12.656C3.11726 12.5108 1.86132 12.1677 0.786047 11.3267C0.652625 11.2221 0.514875 11.1212 0.393121 11.0044C-0.0775254 10.5523 -0.124948 10.0347 0.247467 9.50115C0.566061 9.04462 1.10088 8.92249 1.65677 9.18463C1.76441 9.23544 1.86697 9.29886 1.9652 9.36698C3.96916 10.7439 6.72209 10.7819 8.73358 9.42889C8.93287 9.27609 9.14589 9.15151 9.39279 9.0879C9.87284 8.96464 10.3205 9.14097 10.5782 9.56099C10.8725 10.0407 10.8687 10.5089 10.5061 10.8813C9.94981 11.4522 9.28082 11.8653 8.5375 12.1536C7.83463 12.4261 7.06478 12.5633 6.30282 12.6543C6.4178 12.7795 6.472 12.841 6.54388 12.9133C7.57852 13.9528 8.61766 14.988 9.64891 16.0307C10.0002 16.386 10.0736 16.8266 9.88018 17.2398C9.66867 17.6914 9.1952 17.9886 8.73095 17.9568C8.43682 17.9365 8.20742 17.7901 8.00362 17.5847C7.22285 16.7991 6.4274 16.0279 5.66244 15.2274C5.43981 14.9946 5.33274 15.0386 5.13627 15.2407C4.3508 16.0494 3.55253 16.8456 2.74955 17.6372C2.38899 17.9927 1.95993 18.0567 1.54179 17.8537C1.0973 17.6382 0.814462 17.1845 0.836292 16.7285C0.851346 16.4201 1.00302 16.1845 1.21473 15.9731C2.23863 14.9507 3.25971 13.9257 4.28117 12.9016C4.34873 12.8335 4.41177 12.7612 4.51019 12.656Z" fill="currentColor"></path>
    <path d="M5.35872 9.09472C2.87376 9.08625 0.836112 7.02621 0.850602 4.5373C0.864904 2.02092 2.90387 -0.0069449 5.41329 1.78767e-05C7.92779 0.00679247 9.94605 2.06382 9.93345 4.60636C9.92065 7.09019 7.86889 9.10337 5.35872 9.09472ZM7.6171 4.54332C7.61277 3.30752 6.62857 2.3237 5.39522 2.32257C4.15152 2.32126 3.15848 3.32295 3.16808 4.57004C3.1773 5.80114 4.16996 6.778 5.4067 6.77348C6.63968 6.76915 7.62124 5.77893 7.6171 4.54332Z" fill="currentColor"></path>
  </symbol>
  <symbol fill="none" xmlns="http://www.w3.org/2000/svg" viewBox="0 0 24 24" id="ic_phone">
    <path d="M6.54 5C6.6 5.89 6.75 6.76 6.99 7.59L5.79 8.79C5.38 7.59 5.12 6.32 5.03 5H6.54ZM16.4 17.02C17.25 17.26 18.12 17.41 19 17.47V18.96C17.68 18.87 16.41 18.61 15.2 18.21L16.4 17.02ZM7.5 3H4C3.45 3 3 3.45 3 4C3 13.39 10.61 21 20 21C20.55 21 21 20.55 21 20V16.51C21 15.96 20.55 15.51 20 15.51C18.76 15.51 17.55 15.31 16.43 14.94C16.33 14.9 16.22 14.89 16.12 14.89C15.86 14.89 15.61 14.99 15.41 15.18L13.21 17.38C10.38 15.93 8.06 13.62 6.62 10.79L8.82 8.59C9.1 8.31 9.18 7.92 9.07 7.57C8.7 6.45 8.5 5.25 8.5 4C8.5 3.45 8.05 3 7.5 3Z" fill="currentColor"></path>
  </symbol>
  <symbol fill="none" xmlns="http://www.w3.org/2000/svg" viewBox="0 0 19 19" id="ic_search">
    <circle cx="8.5" cy="8.5" r="7.5" stroke="currentColor" stroke-width="2"></circle>
    <line x1="14.3341" y1="14.4399" x2="17.4799" y2="17.5857" stroke="currentColor" stroke-width="2" stroke-linecap="round"></line>
  </symbol>
  <symbol fill="none" xmlns="http://www.w3.org/2000/svg" viewBox="0 0 20 11" id="ic_vkontakte">
    <path d="M19.1776 9.93421C19.1543 9.8839 19.1325 9.84216 19.1123 9.80873C18.7778 9.20627 18.1385 8.46681 17.195 7.59011L17.175 7.57004L17.1651 7.56019L17.155 7.5501H17.1448C16.7166 7.14187 16.4454 6.86738 16.3319 6.72685C16.1241 6.45915 16.0775 6.18818 16.1911 5.91362C16.2713 5.70618 16.5727 5.2681 17.0945 4.59877C17.369 4.24405 17.5864 3.95975 17.7469 3.74556C18.9048 2.20629 19.4067 1.22268 19.2527 0.794338L19.1929 0.69424C19.1527 0.633977 19.049 0.578847 18.8819 0.52857C18.7144 0.478397 18.5003 0.4701 18.2393 0.503537L15.3483 0.523507C15.3015 0.506912 15.2346 0.508458 15.1475 0.52857C15.0605 0.548681 15.017 0.558772 15.017 0.558772L14.9667 0.58391L14.9267 0.614112C14.8932 0.634082 14.8564 0.669207 14.8162 0.719414C14.7763 0.769445 14.7428 0.828161 14.7161 0.895069C14.4014 1.70482 14.0435 2.45768 13.6419 3.15362C13.3943 3.56861 13.1669 3.92825 12.9592 4.23276C12.7518 4.53717 12.5778 4.76145 12.4373 4.90522C12.2967 5.04912 12.1698 5.16441 12.0558 5.2515C11.942 5.33862 11.8551 5.37544 11.7949 5.36197C11.7347 5.3485 11.6779 5.33514 11.6241 5.32178C11.5305 5.26152 11.4552 5.17956 11.3984 5.07584C11.3414 4.97213 11.303 4.84158 11.2829 4.68431C11.2629 4.52694 11.2511 4.39158 11.2477 4.27777C11.2446 4.1641 11.246 4.00331 11.2528 3.79588C11.2598 3.58833 11.2629 3.44791 11.2629 3.37428C11.2629 3.11994 11.2679 2.84391 11.2778 2.54611C11.288 2.24831 11.2961 2.01236 11.303 1.83853C11.3098 1.66453 11.313 1.48043 11.313 1.28636C11.313 1.09228 11.3012 0.940072 11.2778 0.829602C11.2548 0.719273 11.2194 0.612178 11.1727 0.508353C11.1258 0.404634 11.0571 0.3244 10.9669 0.267443C10.8766 0.210555 10.7643 0.165411 10.6307 0.131869C10.2759 0.0516004 9.82424 0.00817886 9.27537 0.0014283C8.0307 -0.0119322 7.23094 0.0684415 6.87625 0.242444C6.73572 0.315962 6.60855 0.416412 6.49485 0.543477C6.37436 0.690759 6.35755 0.771133 6.44453 0.784353C6.84612 0.84451 7.13042 0.988416 7.29774 1.21593L7.35804 1.33649C7.40494 1.42348 7.45177 1.57747 7.49864 1.79827C7.54544 2.01907 7.57564 2.26332 7.58893 2.53088C7.62233 3.01949 7.62233 3.43774 7.58893 3.78568C7.55542 4.13376 7.52378 4.40473 7.49358 4.59881C7.46338 4.79288 7.41823 4.95015 7.35804 5.07057C7.29774 5.19103 7.25762 5.26465 7.23751 5.29137C7.21744 5.31809 7.2007 5.33493 7.18741 5.34154C7.10043 5.37487 7.00996 5.39186 6.91633 5.39186C6.82256 5.39186 6.70886 5.34495 6.57504 5.25122C6.44126 5.15748 6.30242 5.02873 6.15851 4.86475C6.01461 4.70073 5.85231 4.47153 5.67156 4.17711C5.49095 3.88268 5.30355 3.53471 5.10947 3.1332L4.9489 2.84201C4.84852 2.65468 4.7114 2.38191 4.5374 2.02396C4.36329 1.66586 4.20939 1.31947 4.07561 0.984865C4.02214 0.844334 3.9418 0.737345 3.83474 0.663722L3.7845 0.63352C3.7511 0.606799 3.69748 0.578425 3.62392 0.548188C3.55027 0.517987 3.47341 0.496328 3.39303 0.483003L0.642569 0.502974C0.361506 0.502974 0.170803 0.566647 0.0703886 0.693817L0.0302017 0.753975C0.0101258 0.787481 0 0.840994 0 0.914652C0 0.988276 0.0200759 1.07863 0.0602628 1.18562C0.46178 2.1293 0.898422 3.03939 1.37019 3.91605C1.84195 4.79271 2.25191 5.49888 2.59981 6.03393C2.94778 6.56937 3.30246 7.07471 3.66387 7.54971C4.02527 8.02489 4.26449 8.3294 4.38153 8.46318C4.49872 8.59721 4.59077 8.69741 4.65767 8.76432L4.90868 9.0052C5.06928 9.16584 5.30513 9.35823 5.61632 9.58237C5.92759 9.80665 6.27218 10.0274 6.65028 10.2451C7.02846 10.4624 7.4684 10.6398 7.97037 10.7769C8.47227 10.9142 8.96077 10.9693 9.43594 10.9427H10.5904C10.8245 10.9225 11.0019 10.8489 11.1224 10.7218L11.1624 10.6715C11.1892 10.6316 11.2144 10.5695 11.2376 10.486C11.2611 10.4024 11.2727 10.3102 11.2727 10.21C11.2659 9.92229 11.2878 9.66299 11.3378 9.43214C11.3879 9.20135 11.4449 9.02735 11.5087 8.91016C11.5724 8.79308 11.6444 8.69429 11.7244 8.61419C11.8047 8.53392 11.8618 8.4853 11.8954 8.46856C11.9287 8.45172 11.9553 8.4403 11.9754 8.43344C12.136 8.37993 12.325 8.43175 12.5427 8.58916C12.7602 8.74643 12.9643 8.94061 13.1551 9.17139C13.3459 9.40239 13.575 9.66155 13.8427 9.94926C14.1105 10.2371 14.3446 10.451 14.5453 10.5918L14.746 10.7122C14.88 10.7926 15.054 10.8662 15.2682 10.9331C15.482 11 15.6693 11.0167 15.8302 10.9833L18.3999 10.9432C18.654 10.9432 18.8518 10.9011 18.9921 10.8176C19.1327 10.734 19.2162 10.6418 19.2431 10.5416C19.27 10.4412 19.2714 10.3274 19.2482 10.2001C19.2244 10.0732 19.2009 9.98438 19.1776 9.93421Z" fill="currentColor"></path>
  </symbol>
</svg>